<?xml version="1.0" encoding="UTF-8" standalone="no"?>
<!-- Created with Inkscape (http://www.inkscape.org/) -->

<svg
   width="30.48mm"
   height="128.5mm"
   viewBox="0 0 30.480002 128.50002"
   version="1.1"
   id="svg8"
   inkscape:version="1.4 (86a8ad7, 2024-10-11)"
   sodipodi:docname="SpectroFX.svg"
   xmlns:inkscape="http://www.inkscape.org/namespaces/inkscape"
   xmlns:sodipodi="http://sodipodi.sourceforge.net/DTD/sodipodi-0.dtd"
   xmlns="http://www.w3.org/2000/svg"
   xmlns:svg="http://www.w3.org/2000/svg"
   xmlns:rdf="http://www.w3.org/1999/02/22-rdf-syntax-ns#"
   xmlns:cc="http://creativecommons.org/ns#"
   xmlns:dc="http://purl.org/dc/elements/1.1/">
  <defs
     id="defs2" />
  <sodipodi:namedview
     id="base"
     pagecolor="#ffffff"
     bordercolor="#666666"
     borderopacity="1.0"
     inkscape:pageopacity="0.0"
     inkscape:pageshadow="2"
     inkscape:zoom="2.8"
     inkscape:cx="90"
     inkscape:cy="52.678571"
     inkscape:document-units="mm"
     inkscape:current-layer="layer1"
     showgrid="false"
     units="mm"
     inkscape:snap-bbox="true"
     inkscape:snap-page="true"
     inkscape:bbox-nodes="false"
     inkscape:snap-bbox-edge-midpoints="false"
     inkscape:window-width="1920"
     inkscape:window-height="1009"
     inkscape:window-x="1912"
     inkscape:window-y="-8"
     inkscape:window-maximized="1"
     inkscape:snap-bbox-midpoints="true"
     inkscape:snap-nodes="false"
     inkscape:showpageshadow="2"
     inkscape:pagecheckerboard="0"
     inkscape:deskcolor="#d1d1d1" />
  <metadata
     id="metadata5">
    <rdf:RDF>
      <cc:Work
         rdf:about="">
        <dc:format>image/svg+xml</dc:format>
        <dc:type
           rdf:resource="http://purl.org/dc/dcmitype/StillImage" />
      </cc:Work>
    </rdf:RDF>
  </metadata>
  <g
     inkscape:label="Layer 1"
     inkscape:groupmode="layer"
     id="layer1"
     transform="translate(0,-168.49998)">
    <rect
       style="display:inline;opacity:1;vector-effect:none;fill:#e6e6e6;fill-opacity:1;fill-rule:evenodd;stroke:none;stroke-width:0.64935839;stroke-linecap:butt;stroke-linejoin:miter;stroke-miterlimit:4;stroke-dasharray:none;stroke-dashoffset:0;stroke-opacity:1;paint-order:normal"
       id="rect420"
       width="30.48"
       height="128.5"
       x="5.9211732e-17"
       y="168.49997" />
    <path
       d="m 3.7895359,174.17094 v 1.20613 q -0.1364257,-0.0465 -0.2108398,-0.0465 -0.142627,0 -0.2449463,0.10542 -0.1023193,0.10542 -0.1023193,0.25425 0,0.12712 0.1116211,0.32246 l 0.096118,0.16743 q 0.2604492,0.45269 0.2604492,0.87437 0,0.61701 -0.4402831,1.04489 -0.4371827,0.42788 -1.0697022,0.42788 -0.3038574,0 -0.6015136,-0.13952 v -1.22473 q 0.1798339,0.11472 0.3193603,0.11472 0.1643311,0 0.2728516,-0.093 0.1116211,-0.0961 0.1116211,-0.23874 0,-0.093 -0.1767334,-0.40618 -0.2821534,-0.49609 -0.2821534,-0.99219 0,-0.59841 0.4247803,-1.02939 0.4278809,-0.43409 1.0200928,-0.43409 0.2604492,0 0.5115966,0.0868 z m 1.6433105,5.39502 H 4.2732272 v -2.57969 q 0,-0.71003 0.3720703,-1.15652 0.2139405,-0.25734 0.5426026,-0.40927 0.3317627,-0.15193 0.6790283,-0.15193 0.6914306,0 1.1658203,0.46509 0.4743896,0.46508 0.4743896,1.14101 0,0.65733 -0.471289,1.13482 -0.4712891,0.47749 -1.116211,0.47749 -0.1054199,0 -0.3100585,-0.0217 v -1.27744 q 0.1426269,0.11472 0.2852539,0.11472 0.1798339,0 0.306958,-0.13332 0.1302246,-0.13333 0.1302246,-0.31626 0,-0.18294 -0.1333252,-0.31006 -0.1333252,-0.13023 -0.3193604,-0.13023 -0.4464843,0 -0.4464843,0.61702 z m 5.6213616,-2.50217 H 9.2961762 q -0.040308,-0.13333 -0.040308,-0.24495 0,-0.15503 0.05581,-0.30386 h 0.5891113 q -0.062012,-0.34416 -0.3875732,-0.34416 -0.217041,0 -0.3534668,0.18603 -0.1364258,0.18294 -0.1364258,0.47129 0,0.30076 0.1302246,0.4868 0.1333252,0.18603 0.3472657,0.18603 0.1736328,0 0.3348632,-0.17363 l 0.6604249,0.79375 q -0.461987,0.36277 -1.026294,0.36277 -0.6883301,0 -1.1565185,-0.46199 -0.4681885,-0.46199 -0.4681885,-1.14412 0,-0.67903 0.4712891,-1.14721 0.4743896,-0.46819 1.1627197,-0.46819 0.6728272,0 1.1286132,0.45888 0.458887,0.45579 0.458887,1.12552 0,0.0682 -0.0124,0.21704 z m 2.37815,-0.0651 1.150317,-0.0434 q -0.04961,0.66972 -0.499194,1.10071 -0.449585,0.43098 -1.094507,0.43098 -0.682129,0 -1.153418,-0.47439 -0.468188,-0.47439 -0.468188,-1.16272 0,-0.65423 0.474389,-1.11931 0.47439,-0.46509 1.137915,-0.46509 0.57981,0 1.023194,0.36587 0.443383,0.36587 0.551904,0.93327 l -1.175122,0.0434 q -0.151929,-0.19844 -0.384473,-0.19844 -0.198437,0 -0.325561,0.13023 -0.127124,0.13022 -0.127124,0.32866 0,0.20154 0.133325,0.33796 0.136426,0.13643 0.337964,0.13643 0.294555,0 0.418579,-0.34416 z m 2.688209,-2.80914 v 1.18443 h 0.520898 v 1.22473 h -0.520898 q 0,0.36897 0.114721,0.5085 0.117823,0.13952 0.427881,0.13952 v 1.21853 q -0.08992,0.003 -0.133325,0.003 -0.393774,0 -0.744141,-0.18293 -0.347265,-0.18294 -0.558105,-0.4961 -0.266651,-0.39997 -0.266651,-1.0604 v -2.53938 z m 2.787426,1.11001 v 1.24024 q -0.120922,-0.0682 -0.220141,-0.0682 -0.31626,0 -0.31626,0.48369 v 1.46657 h -1.159619 v -1.68981 q 0,-0.66973 0.365869,-1.06661 0.365869,-0.39997 0.976685,-0.39997 0.136425,0 0.353466,0.0341 z m 1.807642,-0.0341 q 0.657324,0 1.125512,0.47439 0.471289,0.47129 0.471289,1.13171 0,0.66973 -0.47749,1.14102 -0.47439,0.47129 -1.147217,0.47129 -0.672827,0 -1.150317,-0.47129 -0.47749,-0.47439 -0.47749,-1.14102 0,-0.67903 0.47749,-1.14101 0.47749,-0.46509 1.178223,-0.46509 z m -0.03101,1.14411 q -0.186035,0 -0.31626,0.13643 -0.130225,0.13333 -0.130225,0.32866 0,0.19224 0.130225,0.32866 0.133325,0.13643 0.31626,0.13643 0.186035,0 0.316259,-0.13643 0.133326,-0.13642 0.133326,-0.32866 0,-0.19533 -0.130225,-0.32866 -0.130225,-0.13643 -0.31936,-0.13643 z m 3.788915,-0.22634 v 1.13482 h -0.418579 v 1.1038 h -1.258838 v -2.62619 q 0,-0.74104 0.455786,-1.22473 0.458887,-0.4868 1.153418,-0.4868 0.765845,0 1.280542,0.66043 l -1.032495,0.75344 q -0.08682,-0.24184 -0.306958,-0.24184 -0.291455,0 -0.291455,0.40307 v 0.524 z m 4.381129,-1.99368 -1.100708,2.05879 1.137915,2.17351 h -1.323951 l -0.520898,-1.02629 -0.440283,1.02629 h -1.302246 l 1.16272,-2.1394 -1.100708,-2.0929 h 1.311547 l 0.492994,0.96119 0.396874,-0.96119 z"
       id="text1"
       style="font-size:6.35px;line-height:6.61458px;font-family:'Bauhaus 93';-inkscape-font-specification:'Bauhaus 93, Normal';letter-spacing:0px;word-spacing:0px;stroke-width:0.0700043px"
       aria-label="SpectroFX" />
    <g
       aria-label="Pitch"
       style="font-style:normal;font-variant:normal;font-weight:300;font-stretch:normal;font-size:4.93888855px;line-height:6.61458302px;font-family:'Gotham Rounded';-inkscape-font-specification:'Gotham Rounded Light';font-variant-ligatures:normal;font-variant-caps:normal;font-variant-numeric:normal;font-feature-settings:normal;text-align:center;letter-spacing:0px;word-spacing:0px;writing-mode:lr-tb;text-anchor:middle;display:inline;fill:#000000;fill-opacity:1;stroke:none;stroke-width:0.26458332px;stroke-linecap:butt;stroke-linejoin:miter;stroke-opacity:1"
       id="text4944"
       transform="translate(0,10.583334)">
      <path
         d="m 10.377818,215.46915 c 0,0.0593 0.0508,0.11007 0.110067,0.11007 0.05927,0 0.110067,-0.0508 0.110067,-0.11007 v -1.01176 h 0.8001 c 0.618066,0 1.155699,-0.32174 1.155699,-0.94404 v -0.008 c 0,-0.5715 -0.448733,-0.90594 -1.100666,-0.90594 h -0.9652 c -0.05927,0 -0.110067,0.0508 -0.110067,0.11007 z m 0.220134,-1.21496 v -1.45204 h 0.8382 c 0.533399,0 0.897466,0.24554 0.897466,0.71544 v 0.008 c 0,0.44027 -0.372533,0.72814 -0.922866,0.72814 z"
         style="font-style:normal;font-variant:normal;font-weight:300;font-stretch:normal;font-size:4.23333311px;font-family:'Gotham Rounded';-inkscape-font-specification:'Gotham Rounded Light';text-align:center;text-anchor:middle;stroke-width:0.26458332px"
         id="path5046"
         inkscape:connector-curvature="0" />
      <path
         d="m 13.163219,212.73442 c 0,0.072 0.05503,0.127 0.127,0.127 0.07197,0 0.131233,-0.055 0.131233,-0.127 v -0.072 c 0,-0.072 -0.05927,-0.127 -0.131233,-0.127 -0.07197,0 -0.127,0.055 -0.127,0.127 z m 0.0254,2.73897 c 0,0.0635 0.04657,0.10583 0.105833,0.10583 0.05927,0 0.1016,-0.0423 0.1016,-0.10583 v -1.9812 c 0,-0.0635 -0.04657,-0.10584 -0.105833,-0.10584 -0.05927,0 -0.1016,0.0466 -0.1016,0.10584 z"
         style="font-style:normal;font-variant:normal;font-weight:300;font-stretch:normal;font-size:4.23333311px;font-family:'Gotham Rounded';-inkscape-font-specification:'Gotham Rounded Light';text-align:center;text-anchor:middle;stroke-width:0.26458332px"
         id="path5048"
         inkscape:connector-curvature="0" />
      <path
         d="m 14.928717,215.60039 c 0.122767,0 0.220134,-0.0254 0.3048,-0.055 0.04233,-0.0169 0.06773,-0.0466 0.06773,-0.0889 0,-0.0508 -0.04657,-0.0931 -0.09313,-0.0931 -0.02963,0 -0.09737,0.0423 -0.245533,0.0423 -0.249767,0 -0.4318,-0.11006 -0.4318,-0.4191 v -1.39276 h 0.677333 c 0.0508,0 0.09737,-0.0423 0.09737,-0.0931 0,-0.0508 -0.04657,-0.0974 -0.09737,-0.0974 h -0.677333 v -0.60114 c 0,-0.0593 -0.04657,-0.10583 -0.105833,-0.10583 -0.05927,0 -0.1016,0.0466 -0.1016,0.10583 v 0.60114 h -0.232833 c -0.0508,0 -0.09737,0.0423 -0.09737,0.0931 0,0.0508 0.04657,0.0974 0.09737,0.0974 h 0.232833 v 1.41393 c 0,0.41063 0.270933,0.59267 0.605366,0.59267 z"
         style="font-style:normal;font-variant:normal;font-weight:300;font-stretch:normal;font-size:4.23333311px;font-family:'Gotham Rounded';-inkscape-font-specification:'Gotham Rounded Light';text-align:center;text-anchor:middle;stroke-width:0.26458332px"
         id="path5050"
         inkscape:connector-curvature="0" />
      <path
         d="m 16.790392,215.61309 c 0.3683,0 0.618067,-0.1524 0.833967,-0.37254 0.01693,-0.0169 0.0254,-0.0423 0.0254,-0.0635 0,-0.0508 -0.0508,-0.1016 -0.1016,-0.1016 -0.02963,0 -0.0508,0.0169 -0.06773,0.0339 -0.173566,0.17357 -0.397933,0.30903 -0.677333,0.30903 -0.4953,0 -0.889,-0.41486 -0.889,-0.93556 v -0.008 c 0,-0.51647 0.381,-0.9271 0.872067,-0.9271 0.2921,0 0.4953,0.1397 0.668866,0.3048 0.01693,0.0169 0.04657,0.0254 0.07197,0.0254 0.05927,0 0.105833,-0.0466 0.105833,-0.10583 0,-0.0296 -0.0127,-0.0593 -0.02963,-0.0762 -0.194733,-0.18204 -0.440267,-0.3429 -0.8128,-0.3429 -0.618067,0 -1.100667,0.52493 -1.100667,1.1303 v 0.008 c 0,0.60537 0.478367,1.12184 1.100667,1.12184 z"
         style="font-style:normal;font-variant:normal;font-weight:300;font-stretch:normal;font-size:4.23333311px;font-family:'Gotham Rounded';-inkscape-font-specification:'Gotham Rounded Light';text-align:center;text-anchor:middle;stroke-width:0.26458332px"
         id="path5052"
         inkscape:connector-curvature="0" />
      <path
         d="m 18.252215,215.47339 c 0,0.0635 0.04657,0.10583 0.105833,0.10583 0.05927,0 0.1016,-0.0423 0.1016,-0.10583 v -1.15994 c 0,-0.44873 0.325967,-0.77046 0.7493,-0.77046 0.436033,0 0.6858,0.2921 0.6858,0.7366 v 1.1938 c 0,0.0635 0.04657,0.10583 0.105833,0.10583 0.05927,0 0.1016,-0.0423 0.1016,-0.10583 v -1.2319 c 0,-0.51647 -0.3175,-0.889 -0.8636,-0.889 -0.3937,0 -0.635,0.19896 -0.778933,0.45296 v -1.2446 c 0,-0.0593 -0.04657,-0.10583 -0.105833,-0.10583 -0.05927,0 -0.1016,0.0466 -0.1016,0.10583 z"
         style="font-style:normal;font-variant:normal;font-weight:300;font-stretch:normal;font-size:4.23333311px;font-family:'Gotham Rounded';-inkscape-font-specification:'Gotham Rounded Light';text-align:center;text-anchor:middle;stroke-width:0.26458332px"
         id="path5054"
         inkscape:connector-curvature="0" />
    </g>
    <g
       aria-label="1V/oct"
       style="font-style:normal;font-variant:normal;font-weight:300;font-stretch:normal;font-size:4.93888855px;line-height:6.61458302px;font-family:'Gotham Rounded';-inkscape-font-specification:'Gotham Rounded Light';font-variant-ligatures:normal;font-variant-caps:normal;font-variant-numeric:normal;font-feature-settings:normal;text-align:center;letter-spacing:0px;word-spacing:0px;writing-mode:lr-tb;text-anchor:middle;display:inline;fill:#000000;fill-opacity:1;stroke:none;stroke-width:0.26458332px;stroke-linecap:butt;stroke-linejoin:miter;stroke-opacity:1"
       id="text4948"
       transform="translate(0,5.2916669)">
      <path
         d="m 9.6908279,252.06539 c 0,0.0593 0.0508,0.11007 0.1100667,0.11007 0.059267,0 0.1058333,-0.0508 0.1058333,-0.11007 v -2.794 c 0,-0.055 -0.0381,-0.10583 -0.1058333,-0.10583 h -0.00847 c -0.046567,0 -0.0889,0.0127 -0.1354666,0.0296 l -0.5164667,0.1905 c -0.046567,0.0169 -0.080433,0.0423 -0.080433,0.0931 0,0.0508 0.042333,0.0931 0.093133,0.0931 0.016933,0 0.033867,-0.004 0.055033,-0.0127 l 0.4826,-0.1651 z"
         style="font-style:normal;font-variant:normal;font-weight:300;font-stretch:normal;font-size:4.23333311px;font-family:'Gotham Rounded';-inkscape-font-specification:'Gotham Rounded Light';text-align:center;text-anchor:middle;stroke-width:0.26458332px"
         id="path5057"
         inkscape:connector-curvature="0" />
      <path
         d="m 11.938463,252.18816 h 0.0085 c 0.06773,0 0.105833,-0.0381 0.131233,-0.0974 l 1.210733,-2.7686 c 0.0085,-0.0169 0.0085,-0.0254 0.0085,-0.0423 0,-0.0508 -0.04657,-0.1016 -0.105833,-0.1016 -0.0508,0 -0.0889,0.0381 -0.110067,0.0847 l -1.134533,2.65854 -1.1303,-2.6543 c -0.02117,-0.0508 -0.05927,-0.0889 -0.1143,-0.0889 -0.0635,0 -0.110067,0.055 -0.110067,0.10583 0,0.0212 0,0.0296 0.0085,0.0466 l 1.2065,2.76013 c 0.0254,0.0593 0.0635,0.0974 0.131233,0.0974 z"
         style="font-style:normal;font-variant:normal;font-weight:300;font-stretch:normal;font-size:4.23333311px;font-family:'Gotham Rounded';-inkscape-font-specification:'Gotham Rounded Light';text-align:center;text-anchor:middle;stroke-width:0.26458332px"
         id="path5059"
         inkscape:connector-curvature="0" />
      <path
         d="m 13.000435,252.62842 c 0,0.0508 0.0381,0.0889 0.0889,0.0889 0.04233,0 0.07197,-0.0254 0.0889,-0.0593 l 1.913466,-3.75074 c 0.0085,-0.0169 0.0127,-0.0381 0.0127,-0.055 0,-0.0508 -0.0381,-0.0889 -0.0889,-0.0889 -0.04233,0 -0.07197,0.0254 -0.0889,0.0593 l -1.913466,3.75073 c -0.0085,0.0169 -0.0127,0.0381 -0.0127,0.055 z"
         style="font-style:normal;font-variant:normal;font-weight:300;font-stretch:normal;font-size:4.23333311px;font-family:'Gotham Rounded';-inkscape-font-specification:'Gotham Rounded Light';text-align:center;text-anchor:middle;stroke-width:0.26458332px"
         id="path5061"
         inkscape:connector-curvature="0" />
      <path
         d="m 16.153937,252.20932 c 0.643467,0 1.113367,-0.52493 1.113367,-1.1303 v -0.008 c 0,-0.60537 -0.465667,-1.12184 -1.1049,-1.12184 -0.643467,0 -1.113367,0.52494 -1.113367,1.1303 v 0.008 c 0,0.60537 0.465667,1.12183 1.1049,1.12183 z m 0.0085,-0.19473 c -0.499534,0 -0.889,-0.41487 -0.889,-0.93557 v -0.008 c 0,-0.508 0.3683,-0.9271 0.880533,-0.9271 0.499533,0 0.889,0.41486 0.889,0.93556 v 0.008 c 0,0.508 -0.3683,0.9271 -0.880533,0.9271 z"
         style="font-style:normal;font-variant:normal;font-weight:300;font-stretch:normal;font-size:4.23333311px;font-family:'Gotham Rounded';-inkscape-font-specification:'Gotham Rounded Light';text-align:center;text-anchor:middle;stroke-width:0.26458332px"
         id="path5063"
         inkscape:connector-curvature="0" />
      <path
         d="m 18.861683,252.20932 c 0.3683,0 0.618066,-0.1524 0.833966,-0.37253 0.01693,-0.0169 0.0254,-0.0423 0.0254,-0.0635 0,-0.0508 -0.0508,-0.1016 -0.1016,-0.1016 -0.02963,0 -0.0508,0.0169 -0.06773,0.0339 -0.173567,0.17356 -0.397933,0.30903 -0.677333,0.30903 -0.4953,0 -0.889,-0.41487 -0.889,-0.93557 v -0.008 c 0,-0.51647 0.381,-0.9271 0.872066,-0.9271 0.2921,0 0.4953,0.1397 0.668867,0.3048 0.01693,0.0169 0.04657,0.0254 0.07197,0.0254 0.05927,0 0.105834,-0.0466 0.105834,-0.10584 0,-0.0296 -0.0127,-0.0593 -0.02963,-0.0762 -0.194733,-0.18203 -0.440266,-0.3429 -0.812799,-0.3429 -0.618067,0 -1.100667,0.52494 -1.100667,1.1303 v 0.008 c 0,0.60537 0.478367,1.12183 1.100667,1.12183 z"
         style="font-style:normal;font-variant:normal;font-weight:300;font-stretch:normal;font-size:4.23333311px;font-family:'Gotham Rounded';-inkscape-font-specification:'Gotham Rounded Light';text-align:center;text-anchor:middle;stroke-width:0.26458332px"
         id="path5065"
         inkscape:connector-curvature="0" />
      <path
         d="m 21.043172,252.19662 c 0.122767,0 0.220133,-0.0254 0.3048,-0.055 0.04233,-0.0169 0.06773,-0.0466 0.06773,-0.0889 0,-0.0508 -0.04657,-0.0931 -0.09313,-0.0931 -0.02963,0 -0.09737,0.0423 -0.245533,0.0423 -0.249767,0 -0.4318,-0.11007 -0.4318,-0.4191 v -1.39277 h 0.677333 c 0.0508,0 0.09737,-0.0423 0.09737,-0.0931 0,-0.0508 -0.04657,-0.0974 -0.09737,-0.0974 h -0.677333 v -0.60113 c 0,-0.0593 -0.04657,-0.10583 -0.105834,-0.10583 -0.05927,0 -0.1016,0.0466 -0.1016,0.10583 v 0.60113 h -0.232833 c -0.0508,0 -0.09737,0.0423 -0.09737,0.0931 0,0.0508 0.04657,0.0974 0.09737,0.0974 h 0.232833 v 1.41394 c 0,0.41063 0.270934,0.59266 0.605367,0.59266 z"
         style="font-style:normal;font-variant:normal;font-weight:300;font-stretch:normal;font-size:4.23333311px;font-family:'Gotham Rounded';-inkscape-font-specification:'Gotham Rounded Light';text-align:center;text-anchor:middle;stroke-width:0.26458332px"
         id="path5067"
         inkscape:connector-curvature="0" />
    </g>
    <g
       aria-label="Sine"
       style="font-style:normal;font-variant:normal;font-weight:300;font-stretch:normal;font-size:4.93888855px;line-height:6.61458302px;font-family:'Gotham Rounded';-inkscape-font-specification:'Gotham Rounded Light';font-variant-ligatures:normal;font-variant-caps:normal;font-variant-numeric:normal;font-feature-settings:normal;text-align:center;letter-spacing:0px;word-spacing:0px;writing-mode:lr-tb;text-anchor:middle;display:inline;fill:#000000;fill-opacity:1;stroke:none;stroke-width:0.26458332px;stroke-linecap:butt;stroke-linejoin:miter;stroke-opacity:1"
       id="text4952">
      <path
         d="m 12.236549,288.79709 c 0.5715,0 0.982133,-0.3302 0.982133,-0.80856 v -0.008 c 0,-0.4318 -0.287866,-0.67733 -0.973666,-0.81703 -0.702734,-0.14394 -0.8636,-0.33444 -0.8636,-0.6477 v -0.008 c 0,-0.30903 0.287866,-0.5588 0.7239,-0.5588 0.300566,0 0.5588,0.0804 0.817033,0.2794 0.02117,0.0169 0.04657,0.0254 0.07197,0.0254 0.05927,0 0.110066,-0.0508 0.110066,-0.11007 0,-0.0423 -0.0254,-0.072 -0.04657,-0.0889 -0.270934,-0.2032 -0.5461,-0.3048 -0.944034,-0.3048 -0.550333,0 -0.952499,0.33867 -0.952499,0.77894 v 0.008 c 0,0.44874 0.287866,0.69004 0.999066,0.83397 0.6731,0.13547 0.8382,0.3175 0.8382,0.63077 v 0.008 c 0,0.33867 -0.3048,0.58844 -0.7493,0.58844 -0.4064,0 -0.702733,-0.11854 -0.999066,-0.38524 -0.01693,-0.0127 -0.04233,-0.0254 -0.07197,-0.0254 -0.05927,0 -0.110067,0.0508 -0.110067,0.11007 0,0.0381 0.02117,0.0677 0.04233,0.0847 0.334433,0.27516 0.681566,0.41486 1.126066,0.41486 z"
         style="font-style:normal;font-variant:normal;font-weight:300;font-stretch:normal;font-size:4.23333311px;font-family:'Gotham Rounded';-inkscape-font-specification:'Gotham Rounded Light';text-align:center;text-anchor:middle;stroke-width:0.26458332px"
         id="path5070" />
      <path
         d="m 13.902895,285.92689 c 0,0.072 0.05503,0.127 0.127,0.127 0.07197,0 0.131233,-0.055 0.131233,-0.127 v -0.072 c 0,-0.072 -0.05927,-0.127 -0.131233,-0.127 -0.07197,0 -0.127,0.055 -0.127,0.127 z m 0.0254,2.73897 c 0,0.0635 0.04657,0.10583 0.105833,0.10583 0.05927,0 0.1016,-0.0423 0.1016,-0.10583 v -1.9812 c 0,-0.0635 -0.04657,-0.10583 -0.105833,-0.10583 -0.05927,0 -0.1016,0.0466 -0.1016,0.10583 z"
         style="font-style:normal;font-variant:normal;font-weight:300;font-stretch:normal;font-size:4.23333311px;font-family:'Gotham Rounded';-inkscape-font-specification:'Gotham Rounded Light';text-align:center;text-anchor:middle;stroke-width:0.26458332px"
         id="path5072" />
      <path
         d="m 14.948726,288.66586 c 0,0.0635 0.04657,0.10583 0.105834,0.10583 0.05927,0 0.1016,-0.0423 0.1016,-0.10583 v -1.15993 c 0,-0.44874 0.325966,-0.77047 0.7493,-0.77047 0.436033,0 0.6858,0.2921 0.6858,0.7366 v 1.1938 c 0,0.0635 0.04657,0.10583 0.105833,0.10583 0.05927,0 0.1016,-0.0423 0.1016,-0.10583 v -1.2319 c 0,-0.51647 -0.3175,-0.889 -0.8636,-0.889 -0.3937,0 -0.635,0.19897 -0.778933,0.45297 v -0.31327 c 0,-0.0635 -0.04657,-0.10583 -0.105834,-0.10583 -0.05927,0 -0.1016,0.0466 -0.1016,0.10583 z"
         style="font-style:normal;font-variant:normal;font-weight:300;font-stretch:normal;font-size:4.23333311px;font-family:'Gotham Rounded';-inkscape-font-specification:'Gotham Rounded Light';text-align:center;text-anchor:middle;stroke-width:0.26458332px"
         id="path5074" />
      <path
         d="m 17.616917,287.57366 c 0.0381,-0.47837 0.3683,-0.8382 0.795867,-0.8382 0.4953,0 0.745066,0.40217 0.7747,0.8382 z m 1.680633,0.88053 c 0.0254,-0.0254 0.03387,-0.0508 0.03387,-0.072 0,-0.055 -0.04657,-0.0974 -0.1016,-0.0974 -0.02963,0 -0.0508,0.0127 -0.06773,0.0296 -0.173567,0.16934 -0.389467,0.29634 -0.6985,0.29634 -0.423334,0 -0.808567,-0.31327 -0.846667,-0.8509 h 1.693333 c 0.0508,0 0.1016,-0.0466 0.1016,-0.0974 0,-0.61807 -0.385233,-1.1176 -0.9906,-1.1176 -0.5842,0 -1.024466,0.49953 -1.024466,1.12607 v 0.008 c 0,0.6731 0.491066,1.12607 1.058333,1.12607 0.389467,0 0.630767,-0.1397 0.842433,-0.35137 z"
         style="font-style:normal;font-variant:normal;font-weight:300;font-stretch:normal;font-size:4.23333311px;font-family:'Gotham Rounded';-inkscape-font-specification:'Gotham Rounded Light';text-align:center;text-anchor:middle;stroke-width:0.26458332px"
         id="path5076" />
    </g>
  </g>
  <g
     inkscape:groupmode="layer"
     id="layer2"
     inkscape:label="components">
    <circle
       style="display:inline;opacity:1;vector-effect:none;fill:#ff0000;fill-opacity:1;fill-rule:evenodd;stroke:none;stroke-width:1;stroke-linecap:butt;stroke-linejoin:miter;stroke-miterlimit:4;stroke-dasharray:none;stroke-dashoffset:0;stroke-opacity:1;paint-order:normal"
       id="path4954"
       cx="15.24"
       cy="46.063263"
       r="4"
       inkscape:label="pitch" />
    <circle
       r="4"
       cy="77.477875"
       cx="15.24"
       id="circle4956"
       style="display:inline;opacity:1;vector-effect:none;fill:#00ff00;fill-opacity:1;fill-rule:evenodd;stroke:none;stroke-width:1;stroke-linecap:butt;stroke-linejoin:miter;stroke-miterlimit:4;stroke-dasharray:none;stroke-dashoffset:0;stroke-opacity:1;paint-order:normal"
       inkscape:label="pitch" />
    <circle
       style="display:inline;opacity:1;vector-effect:none;fill:#0000ff;fill-opacity:1;fill-rule:evenodd;stroke:none;stroke-width:1;stroke-linecap:butt;stroke-linejoin:miter;stroke-miterlimit:4;stroke-dasharray:none;stroke-dashoffset:0;stroke-opacity:1;paint-order:normal"
       id="circle4958"
       cx="15.24"
       cy="108.71259"
       r="4"
       inkscape:label="sine" />
    <circle
       inkscape:label="blink"
       r="4"
       cy="25.80987"
       cx="15.24"
       id="circle66"
       style="display:inline;opacity:1;vector-effect:none;fill:#ff00ff;fill-opacity:1;fill-rule:evenodd;stroke:none;stroke-width:1;stroke-linecap:butt;stroke-linejoin:miter;stroke-miterlimit:4;stroke-dasharray:none;stroke-dashoffset:0;stroke-opacity:1;paint-order:normal" />
  </g>
</svg>
