<?xml version="1.0" encoding="UTF-8" standalone="no"?>
<svg
   width="228.60001mm"
   height="128.5mm"
   viewBox="0 0 228.6 128.5"
   version="1.1"
   id="svg14"
   sodipodi:docname="SpectroFX.svg"
   inkscape:version="1.4 (86a8ad7, 2024-10-11)"
   xml:space="preserve"
   xmlns:inkscape="http://www.inkscape.org/namespaces/inkscape"
   xmlns:sodipodi="http://sodipodi.sourceforge.net/DTD/sodipodi-0.dtd"
   xmlns="http://www.w3.org/2000/svg"
   xmlns:svg="http://www.w3.org/2000/svg"><sodipodi:namedview
     id="namedview14"
     pagecolor="#ffffff"
     bordercolor="#000000"
     borderopacity="0.25"
     inkscape:showpageshadow="2"
     inkscape:pageopacity="0.0"
     inkscape:pagecheckerboard="0"
     inkscape:deskcolor="#d1d1d1"
     inkscape:document-units="mm"
     inkscape:zoom="1.0817656"
     inkscape:cx="217.69966"
     inkscape:cy="303.67022"
     inkscape:window-width="1680"
     inkscape:window-height="987"
     inkscape:window-x="-8"
     inkscape:window-y="-8"
     inkscape:window-maximized="1"
     inkscape:current-layer="svg14" /><!-- Fundo arredondado com gradiente --><defs
     id="defs2"><linearGradient
       id="panel-bg"
       x1="0"
       y1="0"
       x2="0"
       y2="171.39166"
       gradientTransform="scale(1.3337872,0.74974477)"
       gradientUnits="userSpaceOnUse"><stop
         offset="0"
         stop-color="#283747"
         id="stop1"
         style="stop-color:#282828;stop-opacity:1;" /><stop
         offset="1"
         stop-color="#15191f"
         id="stop2"
         style="stop-color:#191919;stop-opacity:1;" /></linearGradient></defs><rect
     x="0"
     y="0"
     width="228.60001"
     height="128.5"
     rx="2.5"
     fill="url(#panel-bg)"
     id="rect2"
     style="fill:url(#panel-bg)" /><rect
     x="119.51384"
     y="102.11855"
     width="102.98497"
     height="21.5"
     rx="1.057"
     fill="#111520"
     stroke="#51eaff"
     stroke-width="0.561773"
     opacity="0.42"
     id="rect3-4" /><rect
     x="2.6749632"
     y="9.7197886"
     width="60.533001"
     height="114.618"
     rx="0.62128913"
     fill="#111520"
     stroke="#51eaff"
     stroke-width="0.963591"
     opacity="0.42"
     id="rect3-4-2" /><circle
     cx="129.96873"
     cy="114.35838"
     r="5"
     fill="#27384a"
     stroke="#5ae0ff"
     stroke-width="0.7"
     id="circle11-0" /><path
     d="m 129.28198,120.06552 v 2.3513 h -0.69936 v -2.3513 z m 0.42203,2.3513 v -1.52619 q 0,-0.40137 0.23944,-0.64252 0.24116,-0.24116 0.64079,-0.24116 0.39791,0 0.60806,0.23427 0.21189,0.23426 0.21189,0.67352 v 1.50208 h -0.69937 v -1.50208 q 0,-0.21531 -0.15331,-0.21531 -0.14814,0 -0.14814,0.21531 v 1.50208 z"
     id="text11-9"
     style="font-size:3.52778px;font-family:'Bauhaus 93';-inkscape-font-specification:'Bauhaus 93, Normal';text-anchor:middle;fill:#d1f3ff"
     aria-label="IN" /><circle
     cx="144.92152"
     cy="114.35838"
     r="5"
     fill="#34322a"
     stroke="#ffe083"
     stroke-width="0.7"
     id="circle12-4" /><path
     d="m 139.77135,120.06552 h 0.85438 q 0.75965,0 0.75965,0.59773 0,0.29628 -0.26011,0.49265 0.37724,0.16364 0.37724,0.58395 0,0.32211 -0.22221,0.51332 -0.10852,0.0913 -0.23254,0.12747 -0.12403,0.0362 -0.33418,0.0362 h -0.13263 v -0.60463 h 0.11885 q 0.10508,0 0.14814,-0.0258 0.0431,-0.0276 0.0431,-0.0947 0,-0.11368 -0.1757,-0.11368 h -0.13435 v -0.62702 q 0.19292,0 0.19292,-0.13264 0,-0.1223 -0.17398,-0.1223 h -0.12919 v 1.72084 h -0.69935 z m 3.67075,0 -0.6649,1.04559 v 1.30571 h -0.69936 v -1.30571 l -0.67007,-1.04559 h 0.70969 l 0.30317,0.48403 0.32556,-0.48403 z m 0.88194,1.53824 v -0.61667 q 0.21188,0 0.21188,-0.16192 0,-0.14814 -0.16192,-0.14814 -0.16364,0 -0.16364,0.20326 v 1.53653 H 143.511 v -1.46418 q 0,-0.22738 0.0448,-0.37208 0.0465,-0.14642 0.15675,-0.27216 0.12402,-0.13953 0.31006,-0.22049 0.18603,-0.081 0.38413,-0.081 0.35829,0 0.60117,0.24116 0.2446,0.24115 0.2446,0.59773 0,0.34623 -0.21877,0.56155 -0.19981,0.1981 -0.60289,0.1981 z m 2.07051,-0.3669 v 0.62012 h -0.20154 v 0.55984 h -0.69935 v -1.49519 q 0,-0.43409 0.23598,-0.67352 0.23772,-0.24116 0.66663,-0.24116 0.41341,0 0.61151,0.21876 0.19809,0.21705 0.19809,0.67181 v 1.5193 h -0.69936 v -1.47279 q 0,-0.13781 -0.0327,-0.19121 -0.0327,-0.0534 -0.11714,-0.0534 -0.16364,0 -0.16364,0.2446 v 0.29283 z m 2.33922,-1.18168 v 0.67008 q -0.0758,-0.0258 -0.11713,-0.0258 -0.0792,0 -0.13609,0.0586 -0.0568,0.0586 -0.0568,0.14125 0,0.0706 0.062,0.17915 l 0.0534,0.093 q 0.1447,0.2515 0.1447,0.48576 0,0.34279 -0.24461,0.58051 -0.24288,0.23771 -0.59428,0.23771 -0.16881,0 -0.33417,-0.0775 v -0.68042 q 0.0999,0.0637 0.17742,0.0637 0.0913,0 0.15159,-0.0517 0.062,-0.0534 0.062,-0.13264 0,-0.0517 -0.0982,-0.22565 -0.15675,-0.27561 -0.15675,-0.55122 0,-0.33246 0.23599,-0.57189 0.23771,-0.24116 0.56672,-0.24116 0.14469,0 0.28422,0.0482 z m 1.459,0 v 0.67008 q -0.0758,-0.0258 -0.11714,-0.0258 -0.0792,0 -0.13608,0.0586 -0.0568,0.0586 -0.0568,0.14125 0,0.0706 0.062,0.17915 l 0.0534,0.093 q 0.14469,0.2515 0.14469,0.48576 0,0.34279 -0.2446,0.58051 -0.24288,0.23771 -0.59428,0.23771 -0.16881,0 -0.33417,-0.0775 v -0.68042 q 0.0999,0.0637 0.17742,0.0637 0.0913,0 0.15159,-0.0517 0.062,-0.0534 0.062,-0.13264 0,-0.0517 -0.0982,-0.22565 -0.15675,-0.27561 -0.15675,-0.55122 0,-0.33246 0.23599,-0.57189 0.23771,-0.24116 0.56672,-0.24116 0.14469,0 0.28422,0.0482 z"
     id="text12-8"
     style="font-size:3.52778px;font-family:'Bauhaus 93';-inkscape-font-specification:'Bauhaus 93, Normal';text-anchor:middle;fill:#fff5c8"
     aria-label="BYPASS" /><circle
     cx="159.96445"
     cy="114.35838"
     r="5"
     fill="#23382a"
     stroke="#7bffd1"
     stroke-width="0.7"
     id="circle13-8" /><path
     d="m 159.35756,121.17313 v 0.63045 h -0.23254 v 0.61324 h -0.69936 v -1.45901 q 0,-0.4117 0.25322,-0.68042 0.25493,-0.27044 0.64078,-0.27044 0.42547,0 0.71142,0.3669 l -0.57361,0.41859 q -0.0482,-0.13436 -0.17053,-0.13436 -0.16192,0 -0.16192,0.22394 v 0.29111 z m 2.43396,-1.10761 -0.6115,1.14378 0.63217,1.20752 h -0.73553 l -0.28938,-0.57018 -0.24461,0.57018 h -0.72347 l 0.64596,-1.18857 -0.61151,-1.16273 h 0.72864 l 0.27389,0.53399 0.22048,-0.53399 z"
     id="text13-2"
     style="font-size:3.52778px;font-family:'Bauhaus 93';-inkscape-font-specification:'Bauhaus 93, Normal';text-anchor:middle;fill:#a6ffe0"
     aria-label="FX" /><!-- Nome do módulo --><path
     d="m 83.522247,5.3056641 v 1.899414 q -0.214843,-0.073242 -0.332031,-0.073242 -0.224609,0 -0.385742,0.1660157 -0.161133,0.1660156 -0.161133,0.4003906 0,0.2001953 0.175781,0.5078125 l 0.151368,0.2636719 q 0.410156,0.7128906 0.410156,1.3769531 0,0.9716791 -0.69336,1.6455081 -0.688476,0.673828 -1.68457,0.673828 -0.478516,0 -0.947266,-0.219727 v -1.928711 q 0.283204,0.180664 0.50293,0.180664 0.258789,0 0.429688,-0.146484 0.175781,-0.1513672 0.175781,-0.3759765 0,-0.1464844 -0.27832,-0.6396485 -0.444336,-0.78125 -0.444336,-1.5625 0,-0.9423828 0.668945,-1.6210937 0.673828,-0.6835938 1.606445,-0.6835938 0.410157,0 0.805664,0.1367186 z m 4.587891,8.4960939 H 86.283966 V 9.7392578 q 0,-1.118164 0.585938,-1.8212891 0.336914,-0.4052734 0.854492,-0.6445312 0.522461,-0.2392578 1.069336,-0.2392578 1.088867,0 1.835937,0.7324219 0.747071,0.7324218 0.747071,1.796875 0,1.0351564 -0.742188,1.7871094 -0.742187,0.751953 -1.757812,0.751953 -0.166016,0 -0.488282,-0.03418 v -2.011718 q 0.22461,0.180664 0.449219,0.180664 0.283203,0 0.483398,-0.209961 0.205079,-0.2099612 0.205079,-0.4980471 0,-0.288086 -0.209961,-0.4882813 -0.209961,-0.2050781 -0.50293,-0.2050781 -0.703125,0 -0.703125,0.9716797 z M 98.962677,9.8613281 h -2.768555 q -0.06348,-0.2099609 -0.06348,-0.3857422 0,-0.2441406 0.08789,-0.4785156 h 0.927735 q -0.09766,-0.5419922 -0.610352,-0.5419922 -0.341797,0 -0.55664,0.2929688 -0.214844,0.2880859 -0.214844,0.7421875 0,0.4736328 0.205078,0.7666016 0.209961,0.292969 0.546875,0.292969 0.273437,0 0.527344,-0.273438 l 1.040039,1.25 q -0.727539,0.571289 -1.616211,0.571289 -1.083985,0 -1.821289,-0.727539 -0.737305,-0.727539 -0.737305,-1.8017576 0,-1.069336 0.742188,-1.8066407 0.74707,-0.7373046 1.831054,-0.7373046 1.059571,0 1.777344,0.7226562 0.722656,0.7177735 0.722656,1.772461 0,0.1074218 -0.01953,0.3417968 z m 5.745113,-0.102539 1.81153,-0.068359 q -0.0781,1.0546869 -0.78614,1.7333979 -0.708,0.678711 -1.72363,0.678711 -1.07422,0 -1.8164,-0.74707 -0.73731,-0.747071 -0.73731,-1.8310545 0,-1.0302735 0.74707,-1.7626954 0.74707,-0.7324218 1.79199,-0.7324218 0.91309,0 1.61133,0.5761718 0.69824,0.5761719 0.86914,1.4697266 l -1.85058,0.068359 q -0.23926,-0.3125 -0.60547,-0.3125 -0.3125,0 -0.5127,0.2050781 -0.20019,0.2050781 -0.20019,0.5175781 0,0.3173829 0.20996,0.5322271 0.21484,0.214843 0.53222,0.214843 0.46387,0 0.65918,-0.5419919 z m 6.2334,-4.4238282 v 1.8652344 h 0.82032 v 1.928711 h -0.82032 q 0,0.5810546 0.18067,0.8007812 0.18554,0.2197265 0.67382,0.2197265 v 1.918945 q -0.1416,0.0049 -0.20996,0.0049 -0.62011,0 -1.17187,-0.288086 -0.54688,-0.288086 -0.87891,-0.78125 -0.41992,-0.629883 -0.41992,-1.6699216 V 5.3349609 Z m 6.38965,1.7480469 v 1.953125 q -0.19043,-0.1074219 -0.34668,-0.1074219 -0.49805,0 -0.49805,0.7617188 V 12 h -1.82617 V 9.3388672 q 0,-1.0546875 0.57617,-1.6796875 0.57618,-0.6298828 1.53809,-0.6298828 0.21484,0 0.55664,0.053711 z m 4.84668,-0.053711 q 1.03516,0 1.77246,0.7470703 0.74219,0.7421875 0.74219,1.7822266 0,1.0546873 -0.75195,1.7968753 -0.74707,0.742187 -1.80664,0.742187 -1.05957,0 -1.81153,-0.742187 -0.75195,-0.747071 -0.75195,-1.7968753 0,-1.069336 0.75195,-1.7968751 0.75196,-0.7324218 1.85547,-0.7324218 z m -0.0488,1.8017578 q -0.29297,0 -0.49804,0.2148437 -0.20508,0.209961 -0.20508,0.5175782 0,0.3027343 0.20508,0.5175785 0.20996,0.214843 0.49804,0.214843 0.29297,0 0.49805,-0.214843 0.20996,-0.2148442 0.20996,-0.5175785 0,-0.3076172 -0.20508,-0.5175782 -0.20508,-0.2148437 -0.50293,-0.2148437 z m 7.9668,-0.3564453 v 1.7871097 h -0.65918 V 12 h -1.98242 V 7.8642578 q 0,-1.1669922 0.71777,-1.9287109 0.72266,-0.7666016 1.81641,-0.7666016 1.20605,0 2.0166,1.0400391 l -1.62598,1.1865234 q -0.13672,-0.3808594 -0.4834,-0.3808594 -0.45898,0 -0.45898,0.6347657 V 8.4746094 Z M 138.9949,5.3349609 137.26151,8.5771484 139.0535,12 h -2.08496 L 136.14822,10.383789 135.45486,12 h -2.05078 l 1.83106,-3.3691406 -1.7334,-3.2958985 h 2.06543 l 0.77637,1.5136719 0.625,-1.5136719 z"
     id="text2"
     style="font-size:10px;font-family:'Bauhaus 93';-inkscape-font-specification:'Bauhaus 93, Normal';letter-spacing:2;text-anchor:middle;fill:#57f2ff"
     aria-label="SpectroFX" /><!-- Área do espectrograma --><rect
     x="65.169365"
     y="16.232533"
     width="156.8658"
     height="82.954048"
     rx="0.97532177"
     fill="#111520"
     stroke="#51eaff"
     stroke-width="1.40258"
     opacity="0.42"
     id="rect3" /><!-- Knobs (7, alinhados horizontalmente) --><circle
     cx="20.260715"
     y="85"
     fill="#191e26"
     stroke="#51eaff"
     stroke-width="0.5"
     id="circle3"
     cy="24.796188"
     style="font-size:4.2px;font-family:Montserrat, Arial;text-anchor:middle"
     r="5" /><path
     d="m 6.5410757,25.459 0.7192597,-0.71926 q 0.6395037,-0.639503 1.1426954,-0.136311 0.2494197,0.24942 0.195766,0.633702 0.4553377,-0.179815 0.8091674,0.174015 0.2711717,0.271173 0.24507,0.619202 -0.0145,0.168214 -0.08846,0.303075 -0.07395,0.134865 -0.250869,0.311779 l -0.111659,0.111659 -0.5089917,-0.508992 0.100058,-0.100058 q 0.08846,-0.08846 0.10296,-0.146461 0.01305,-0.05945 -0.0435,-0.11601 -0.09571,-0.09571 -0.24362,0.05221 L 8.4958438,26.050659 7.9679991,25.522815 q 0.1624127,-0.162414 0.05075,-0.274073 -0.102958,-0.102958 -0.24942,0.0435 l -0.108759,0.10876 1.4486684,1.448669 -0.5887487,0.588749 z m 2.1969318,-2.196933 1.9794155,1.979415 -0.542345,0.542345 -1.9794152,-1.979415 z m 0.8715227,0.236369 0.5423448,-0.542345 0.816419,0.816419 q 0.12326,0.12326 0.226219,0.0203 0.101508,-0.101509 -0.02175,-0.224769 l -0.816418,-0.816419 0.542345,-0.542345 0.806267,0.806267 q 0.281324,0.281324 0.288575,0.662706 0.0058,0.379932 -0.265372,0.651105 -0.308876,0.308876 -0.722161,0.272622 -0.321927,-0.029 -0.633703,-0.340778 z m 2.3636968,-2.433305 0.580049,0.580049 q -0.08846,0.02465 -0.134863,0.07105 -0.147913,0.147912 0.07831,0.374131 l 0.68591,0.68591 -0.542345,0.542345 -0.790317,-0.790316 q -0.313225,-0.313226 -0.327727,-0.669955 -0.01595,-0.358181 0.269723,-0.643855 0.0638,-0.0638 0.181267,-0.149362 z"
     id="text4"
     style="font-size:4.2px;font-family:'Bauhaus 93';-inkscape-font-specification:'Bauhaus 93, Normal';text-anchor:middle;fill:#91eaff"
     aria-label="Blur" /><circle
     cx="20.260715"
     cy="40.354523"
     fill="#191e26"
     stroke="#51eaff"
     stroke-width="0.5"
     id="circle4"
     style="font-size:4.2px;font-family:Montserrat, Arial;text-anchor:middle"
     r="5" /><path
     d="m 4.5457194,42.823981 0.5640967,0.564098 q -0.08555,0.04205 -0.1203587,0.07686 -0.06671,0.06671 -0.06525,0.163867 0.0015,0.09716 0.07105,0.166767 0.05945,0.05945 0.2030177,0.09861 l 0.123265,0.03335 q 0.3335267,0.08991 0.5307437,0.287125 0.2885737,0.288574 0.2827727,0.694608 -0.0043,0.404584 -0.3001737,0.700408 -0.142112,0.142112 -0.3465827,0.216065 L 4.9155034,45.252942 q 0.1377617,-0.03045 0.2030177,-0.09571 0.07686,-0.07686 0.08411,-0.171111 0.0073,-0.09716 -0.05945,-0.163865 -0.0435,-0.0435 -0.2726227,-0.107309 -0.3639797,-0.100058 -0.5959997,-0.332078 -0.279873,-0.279873 -0.282773,-0.680106 -0.0029,-0.403134 0.274072,-0.680108 0.121811,-0.12181 0.2798727,-0.198668 z m 0.8091637,-0.791769 0.6046997,0.6047 q 0.0377,-0.237819 0.1754657,-0.375581 0.208817,-0.208817 0.48144,-0.179815 0.2740717,0.02755 0.5307437,0.284224 l 0.9164794,0.91648 -0.5423447,0.542345 -0.7642137,-0.764214 q -0.09281,-0.09281 -0.1450117,-0.104409 -0.05076,-0.01305 -0.107311,0.0435 -0.09136,0.09136 0.0435,0.226219 l 0.7859674,0.785967 -0.5423457,0.542345 -1.9794138,-1.979415 z m 3.2859735,-0.411834 0.561197,0.561196 q -0.05511,0.07831 -0.110207,0.133414 -0.326277,0.326277 -0.758413,0.329178 -0.432137,0.0029 -0.7555127,-0.320477 -0.314677,-0.314676 -0.314676,-0.752612 0.0015,-0.439387 0.316127,-0.754064 0.3509287,-0.350929 0.7584117,-0.346579 0.407485,0.0014 0.762764,0.35673 l 0.70911,0.70911 -0.542346,0.542346 -0.669956,-0.669957 q -0.114559,-0.114559 -0.239269,-0.12616 -0.123263,-0.01305 -0.21752,0.0812 -0.08556,0.08556 -0.08556,0.210265 0,0.124706 0.08556,0.210265 0.08991,0.08991 0.204467,0.09136 0.114558,0.0014 0.201566,-0.08556 0.07106,-0.07106 0.09426,-0.169664 z m 0.817868,-2.653723 0.5800494,0.580049 q -0.08846,0.02465 -0.1348634,0.07105 -0.147913,0.147912 0.07831,0.374131 l 0.6859134,0.685913 -0.542345,0.542345 -0.7903174,-0.790316 q -0.313225,-0.313226 -0.327727,-0.669955 -0.01595,-0.35818 0.269723,-0.643854 0.0638,-0.0638 0.181266,-0.149362 z m 2.6653234,1.325411 -0.542345,0.542345 -1.206501,-1.206501 q -0.332078,-0.332077 -0.366881,-0.714909 -0.0203,-0.220419 0.06236,-0.445187 0.08411,-0.226219 0.246521,-0.388632 0.323378,-0.323378 0.762764,-0.327728 0.439387,-0.0044 0.755513,0.311776 0.307426,0.307425 0.310326,0.751163 0.0029,0.443737 -0.298725,0.745362 -0.04931,0.04931 -0.155159,0.134865 l -0.59745,-0.59745 q 0.120364,-0.01305 0.187066,-0.07976 0.08411,-0.08411 0.08121,-0.205915 -0.0014,-0.123256 -0.08701,-0.208815 -0.08556,-0.08556 -0.207365,-0.08266 -0.123256,0.0014 -0.210265,0.08846 -0.208818,0.208818 0.07976,0.497391 z m 1.458822,-3.799317 -0.822218,0.822218 q -0.0812,-0.0435 -0.133411,-0.09571 -0.07251,-0.07251 -0.116013,-0.168211 l 0.275524,-0.275524 q -0.189969,-0.131958 -0.342229,0.0203 -0.101508,0.101508 -0.07831,0.252321 0.02176,0.14936 0.156616,0.28422 0.140662,0.140662 0.288572,0.166767 0.149361,0.02465 0.249421,-0.07541 0.08121,-0.08121 0.07541,-0.23782 l 0.680107,0.06235 q -0.0464,0.385733 -0.310326,0.649655 -0.321926,0.321926 -0.756963,0.324826 -0.435036,0.0029 -0.754063,-0.316126 -0.317576,-0.317576 -0.316126,-0.756963 0.0029,-0.440837 0.324827,-0.762764 0.314676,-0.314676 0.742462,-0.313226 0.427786,-0.0015 0.741012,0.311775 0.0319,0.0319 0.09571,0.107307 z m 2.149083,-0.878771 -0.542345,0.542346 -0.816418,-0.816419 q -0.12471,-0.12471 -0.227669,-0.02175 -0.101508,0.101509 0.0232,0.226219 l 0.816418,0.816419 -0.542345,0.542345 -0.806267,-0.806267 q -0.282772,-0.282776 -0.288573,-0.662708 -0.0072,-0.381381 0.263922,-0.652554 0.310326,-0.310326 0.722161,-0.272623 0.321926,0.029 0.635153,0.342229 z"
     id="text5"
     style="font-size:4.2px;font-family:'Bauhaus 93';-inkscape-font-specification:'Bauhaus 93, Normal';text-anchor:middle;fill:#91eaff"
     aria-label="Sharpen" /><circle
     cx="20.260715"
     cy="55.412857"
     fill="#191e26"
     stroke="#51eaff"
     stroke-width="0.5"
     id="circle5"
     style="font-size:4.2px;font-family:Montserrat, Arial;text-anchor:middle"
     r="5" /><path
     d="m 7.6381541,56.200285 0.4408367,0.440837 -0.3842827,0.384282 q -0.07831,0.07831 -0.08846,0.134859 -0.0087,0.0551 0.0464,0.110212 0.06235,0.06235 0.116011,0.0493 0.0522,-0.0145 0.1551627,-0.11746 l 0.395883,-0.395883 0.5655487,0.565549 -0.462589,0.462589 q -0.3262767,0.326277 -0.6540044,0.343678 -0.329177,0.01595 -0.6235517,-0.278423 L 6.3692947,57.124011 Q 6.08507,56.839786 6.090871,56.520759 q 0.0073,-0.320476 0.3030747,-0.6163 l 0.5118927,-0.511893 0.5684477,0.568447 -0.3755807,0.375581 q -0.152263,0.152263 -0.05365,0.250871 0.058,0.058 0.11746,0.04495 0.058,-0.0145 0.1508117,-0.107311 z m 0.4553377,-1.995367 0.5423447,-0.542345 1.2050507,1.205051 q 0.3320778,0.332077 0.3668798,0.714909 0.0203,0.220419 -0.0638,0.446637 -0.08266,0.22477 -0.2450698,0.387183 -0.323377,0.323378 -0.762764,0.327727 -0.4393867,0.0044 -0.7555137,-0.311775 -0.3059747,-0.305976 -0.3088747,-0.749713 -0.0029,-0.443737 0.2987247,-0.745362 0.04786,-0.04786 0.153709,-0.136315 l 0.5974497,0.59745 q -0.118914,0.0145 -0.185616,0.08121 -0.08411,0.08411 -0.08266,0.207366 0.0014,0.120356 0.08846,0.207365 0.08411,0.08411 0.207365,0.08266 0.121806,-0.0029 0.208816,-0.08991 0.208818,-0.208818 -0.07976,-0.497392 z m 2.9828982,-0.216068 0.497392,0.497391 q -0.07396,0.160961 -0.181267,0.26827 -0.262473,0.262473 -0.643854,0.246521 -0.379932,-0.0174 -0.667056,-0.304525 -0.3103258,-0.310326 -0.3045248,-0.742462 0.0058,-0.432136 0.3248268,-0.751163 0.169664,-0.169664 0.392985,-0.256669 0.223321,-0.087 0.426336,-0.0609 0.337878,0.04205 0.698959,0.403134 l 0.475639,0.47564 q 0.387183,0.387182 0.407484,0.848321 0.0232,0.461139 -0.329177,0.813518 -0.107309,0.107309 -0.324828,0.217518 l -0.493042,-0.493042 q 0.163863,-0.04785 0.272623,-0.156614 0.146462,-0.146463 0.129061,-0.323377 -0.01595,-0.175464 -0.195766,-0.35528 l -0.543796,-0.5438 q -0.227669,-0.227669 -0.411834,-0.0435 -0.07831,0.07831 -0.07686,0.198665 0.0014,0.117458 0.07976,0.195765 0.08266,0.08266 0.192866,0.08266 0.111659,-0.0015 0.194317,-0.08411 0.0551,-0.0551 0.07976,-0.131957 z m 2.323095,-2.4014 -0.822219,0.822219 q -0.0812,-0.0435 -0.133411,-0.09571 -0.07251,-0.07251 -0.116012,-0.168211 l 0.275523,-0.275524 q -0.189969,-0.131958 -0.342229,0.0203 -0.101508,0.101509 -0.07831,0.252321 0.02176,0.149359 0.156616,0.28422 0.140661,0.140662 0.288572,0.166766 0.14936,0.02466 0.249421,-0.07541 0.08121,-0.08121 0.07541,-0.23782 l 0.680107,0.06236 q -0.0464,0.385732 -0.310325,0.649654 -0.321927,0.321927 -0.756964,0.324826 -0.435036,0.0029 -0.754063,-0.316126 -0.317576,-0.317576 -0.316127,-0.756963 0.0029,-0.440837 0.324827,-0.762763 0.314677,-0.314677 0.742463,-0.313227 0.427785,-0.0014 0.741011,0.311776 0.0319,0.03191 0.09571,0.107307 z"
     id="text6"
     style="font-size:4.2px;font-family:'Bauhaus 93';-inkscape-font-specification:'Bauhaus 93, Normal';text-anchor:middle;fill:#91eaff"
     aria-label="Edge" /><circle
     cx="20.260715"
     cy="70.971191"
     fill="#191e26"
     stroke="#51eaff"
     stroke-width="0.5"
     id="circle6"
     style="font-size:4.2px;font-family:Montserrat, Arial;text-anchor:middle"
     r="5" /><path
     d="m 6.3096436,73.529154 0.4408357,0.440836 -0.384277,0.384278 q -0.07831,0.07831 -0.08846,0.134859 -0.0087,0.05509 0.04642,0.110198 0.06235,0.06235 0.1160317,0.04928 0.05223,-0.01452 0.15516,-0.117458 l 0.395881,-0.395881 0.5655487,0.565549 -0.4625887,0.46259 Q 6.767921,75.489678 6.440192,75.50708 6.1110153,75.52303 5.8166406,75.228657 L 5.0408272,74.452843 q -0.2842247,-0.284225 -0.2784237,-0.603251 0.0073,-0.320478 0.3030777,-0.616303 l 0.5118887,-0.511889 0.5684467,0.568447 -0.3755797,0.37558 q -0.152261,0.152261 -0.05365,0.25087 0.058,0.058 0.1174817,0.04493 0.05803,-0.01452 0.150811,-0.107311 z M 9.8377865,72.41981 9.2954428,72.962154 8.5152781,72.181989 q -0.08991,-0.08991 -0.1435897,-0.105831 -0.05368,-0.01592 -0.102969,0.03336 -0.09136,0.09136 0.06961,0.252321 l 0.7787144,0.778716 -0.5423437,0.542344 -0.7801644,-0.780165 q -0.08991,-0.08991 -0.145004,-0.104417 -0.05368,-0.01592 -0.102969,0.03336 -0.08991,0.08991 0.07106,0.250872 L 8.3963384,73.861264 7.8539947,74.403608 6.96362,73.513234 q -0.2436197,-0.243621 -0.2494187,-0.57715 -0.0072,-0.334979 0.2262157,-0.568444 0.240721,-0.24072 0.6351577,-0.229125 0.01015,-0.416181 0.223319,-0.629352 0.2711687,-0.271169 0.6322497,-0.237817 0.2827737,0.02465 0.5771474,0.319026 z m -1.1513924,-2.807437 1.1847484,1.184749 q 0.2885735,0.288573 0.4959395,0.08121 0.08846,-0.08846 0.08991,-0.208815 0.0015,-0.12327 -0.0841,-0.20883 -0.08846,-0.08846 -0.205895,-0.08993 -0.118886,-0.0029 -0.2030095,0.0812 -0.05947,0.05947 -0.08411,0.188522 L 9.2824258,70.043026 q 0.08701,-0.104404 0.136316,-0.153711 0.3059717,-0.305972 0.7439092,-0.303074 0.439388,0.0014 0.749714,0.311775 0.317577,0.317576 0.313226,0.756963 -0.0044,0.439388 -0.327724,0.762762 -0.162416,0.162415 -0.388633,0.246519 -0.224773,0.08266 -0.445189,0.06236 Q 9.6812165,71.69181 9.3491388,71.359737 L 8.1440884,70.154686 Z m 2.3970489,-1.390667 q 0.307422,-0.307421 0.74826,-0.304523 0.440838,-10e-7 0.749713,0.308875 0.313227,0.313226 0.310327,0.756963 -0.0014,0.442288 -0.316127,0.756965 -0.314677,0.314676 -0.758414,0.317576 -0.445187,0.0015 -0.756963,-0.310326 -0.317577,-0.317577 -0.310326,-0.756963 0.0058,-0.440837 0.33353,-0.768567 z m 0.520599,0.549591 q -0.08701,0.08701 -0.08411,0.211715 0.0015,0.123234 0.09283,0.214594 0.08991,0.08991 0.214595,0.09283 0.126169,0.0014 0.211715,-0.08411 0.08701,-0.08701 0.08411,-0.211715 -0.0014,-0.126169 -0.09135,-0.216079 -0.09136,-0.09136 -0.214595,-0.09283 -0.124684,-0.0029 -0.213165,0.08556 z m 1.409518,-2.378199 0.571348,0.571348 q -0.114559,0.114558 -0.114566,0.201568 -2.1e-5,0.08412 0.114545,0.221883 0.381397,0.456774 0.266819,0.916481 -0.06235,0.242168 -0.342227,0.522041 l -0.07541,0.07541 -0.574247,-0.574248 0.02468,-0.02468 q 0.13051,-0.13051 0.13196,-0.23927 0.0015,-0.111674 -0.12615,-0.256682 -0.210272,-0.233466 -0.271188,-0.352364 -0.05943,-0.120385 -0.05656,-0.300171 0.0044,-0.31468 0.287125,-0.597452 z m 1.083238,-1.083238 0.571348,0.571348 q -0.114559,0.114558 -0.114559,0.201561 -2.1e-5,0.08412 0.114545,0.221883 0.381397,0.456774 0.266819,0.916481 -0.06235,0.242168 -0.342227,0.522041 l -0.07541,0.07541 -0.574247,-0.574248 0.02468,-0.02468 q 0.130517,-0.130518 0.13196,-0.239271 0.0015,-0.111673 -0.12615,-0.256682 -0.210272,-0.233465 -0.271188,-0.352364 -0.05943,-0.120384 -0.05655,-0.300178 0.0043,-0.314672 0.287125,-0.597451 z"
     id="text7"
     style="font-size:4.2px;font-family:'Bauhaus 93';-inkscape-font-specification:'Bauhaus 93, Normal';text-anchor:middle;fill:#91eaff"
     aria-label="Emboss" /><circle
     cx="20.260715"
     cy="86.529526"
     fill="#191e26"
     stroke="#51eaff"
     stroke-width="0.5"
     id="circle7"
     style="font-size:4.2px;font-family:Montserrat, Arial;text-anchor:middle"
     r="5" /><path
     d="m 7.0218882,91.738819 -1.4269181,-1.42692 q -0.265373,-0.265372 -0.272627,-0.594544 -0.0072,-0.32918 0.249424,-0.585853 0.3045217,-0.304523 0.7482604,-0.188514 -0.05076,-0.250868 3e-6,-0.429239 0.0493,-0.179817 0.217513,-0.348031 0.2668187,-0.26682 0.5771477,-0.24072 0.3103277,0.0261 0.6264547,0.342227 L 9.117313,89.643393 8.5285623,90.232144 7.2408552,88.944436 q -0.09571,-0.09571 -0.142141,-0.11018 -0.0464,-0.01741 -0.09279,0.02898 -0.08701,0.08701 0.0609,0.234922 l 1.2978591,1.29786 -0.5887504,0.588751 -1.2877074,-1.287707 q -0.09426,-0.09426 -0.142141,-0.11018 -0.04781,-0.01599 -0.09427,0.03046 -0.08701,0.08701 0.07105,0.245072 l 1.2877094,1.28771 z m 1.5081241,-4.399667 1.4457704,1.445771 -0.542343,0.542344 -1.4457701,-1.445771 z M 7.6149839,86.963574 q 0.11021,-0.110209 0.2682777,-0.111665 0.15806,-0.0043 0.263919,0.101511 0.113109,0.11311 0.10876,0.262471 -0.0029,0.147912 -0.121814,0.266826 -0.118907,0.118907 -0.268269,0.123257 -0.1479117,0.0029 -0.2610207,-0.11021 -0.105859,-0.105859 -0.10296,-0.26247 0.0029,-0.15951 0.113107,-0.26972 z m 2.0127708,-0.751167 0.5800483,0.580049 q -0.08847,0.02466 -0.134866,0.07106 -0.1479133,0.147913 0.07831,0.374132 l 0.68591,0.685909 -0.542344,0.542344 -0.7903173,-0.790317 Q 9.191271,87.362359 9.176768,87.00563 q -0.01595,-0.358178 0.2697247,-0.643857 0.06378,-0.06378 0.181267,-0.149362 z m 0.9527273,-0.952727 0.580049,0.580048 q -0.08847,0.02466 -0.134867,0.07106 -0.147905,0.147905 0.07831,0.374124 l 0.685909,0.685909 -0.542351,0.542351 -0.790316,-0.790316 q -0.313226,-0.313226 -0.327722,-0.669961 -0.01595,-0.358179 0.269719,-0.64385 0.06378,-0.06378 0.181266,-0.149362 z m 0.829472,-0.861377 q 0.307421,-0.307421 0.748259,-0.304523 0.440838,-10e-7 0.749714,0.308875 0.313226,0.313226 0.310326,0.756963 -0.0014,0.442288 -0.316127,0.756964 -0.314676,0.314677 -0.758413,0.317577 -0.445188,0.0014 -0.756964,-0.310327 -0.317576,-0.317576 -0.310326,-0.756962 0.0058,-0.440837 0.333531,-0.768567 z m 0.520598,0.549591 q -0.08701,0.08701 -0.08411,0.211714 0.0015,0.123235 0.09283,0.214595 0.08991,0.08991 0.214595,0.09283 0.126169,0.0014 0.211715,-0.08411 0.087,-0.087 0.08411,-0.211715 -0.0014,-0.126169 -0.09135,-0.21608 -0.09136,-0.09136 -0.214595,-0.09283 -0.124684,-0.0029 -0.213164,0.08556 z m 1.261606,-2.299894 0.580049,0.580049 q -0.08847,0.02466 -0.134866,0.07106 -0.147913,0.147913 0.07831,0.374132 l 0.685911,0.685911 -0.542344,0.542343 -0.790316,-0.790316 q -0.313226,-0.313225 -0.327729,-0.669954 -0.01595,-0.358178 0.269725,-0.643857 0.06378,-0.06378 0.181267,-0.149362 z"
     id="text8"
     style="font-size:4.2px;font-family:'Bauhaus 93';-inkscape-font-specification:'Bauhaus 93, Normal';text-anchor:middle;fill:#91eaff"
     aria-label="Mirror" /><circle
     cx="20.260715"
     cy="101.58784"
     fill="#191e26"
     stroke="#51eaff"
     stroke-width="0.5"
     id="circle8"
     style="font-size:4.2px;font-family:Montserrat, Arial;text-anchor:middle"
     r="5" /><path
     d="m 7.6069738,103.56005 0.5611947,-0.5612 q 0.4060357,0.0435 0.6554567,0.29293 0.290024,0.29002 0.274076,0.70041 -0.0145,0.40894 -0.324826,0.71926 -0.403135,0.40314 -0.9904324,0.37849 -0.5872987,-0.0246 -1.0266854,-0.46405 -0.440836,-0.44084 -0.44809,-1.01943 -0.0058,-0.58005 0.423439,-1.0093 0.1464557,-0.14645 0.3842767,-0.26537 l 0.5887487,0.58875 q -0.204467,0.0739 -0.319033,0.18852 -0.2073657,0.20737 -0.2102647,0.46839 -0.0014,0.25957 0.2044667,0.46549 0.210268,0.21027 0.4553417,0.21172 0.245066,0.002 0.452432,-0.20592 0.1319597,-0.13196 0.0551,-0.20881 -0.058,-0.058 -0.145006,0.029 l -0.140665,0.14066 z m 2.3114934,-1.1775 0.5611968,0.5612 q -0.05508,0.0783 -0.110203,0.13341 -0.32628,0.32628 -0.7584178,0.32918 -0.432131,0.003 -0.755508,-0.32048 -0.314677,-0.31468 -0.314682,-0.75261 0.0015,-0.43939 0.316128,-0.75407 0.35093,-0.35093 0.758414,-0.34658 0.4074848,10e-4 0.7627648,0.35673 l 0.709106,0.70911 -0.542344,0.54235 -0.6699558,-0.66996 q -0.114559,-0.11457 -0.239283,-0.12615 -0.123242,-0.0131 -0.21752,0.0812 -0.08556,0.0856 -0.08556,0.21027 -1.4e-5,0.12472 0.08554,0.21027 0.08991,0.0899 0.204481,0.0913 0.114572,0.001 0.201568,-0.0856 0.07106,-0.0711 0.09426,-0.16966 z m -0.0116,-2.862557 0.5539458,0.553947 0.243619,-0.243617 0.572798,0.572797 -0.243619,0.24362 q 0.172564,0.17257 0.291489,0.18415 0.120335,0.0102 0.26537,-0.13486 l 0.569898,0.5699 q -0.04059,0.0436 -0.06088,0.0639 -0.184166,0.18416 -0.433581,0.26247 -0.247973,0.0769 -0.493041,0.029 -0.311778,-0.0624 -0.620654,-0.37124 l -1.1876488,-1.1877 z m 3.2758228,-0.587294 -0.822217,0.822214 q -0.08123,-0.0435 -0.133439,-0.0957 -0.07251,-0.0725 -0.116019,-0.1682 l 0.275524,-0.275527 q -0.189955,-0.13197 -0.342231,0.0203 -0.101505,0.1015 -0.07831,0.252317 0.02178,0.14934 0.156637,0.2842 0.140662,0.14067 0.288551,0.16679 0.149374,0.0246 0.249423,-0.0754 0.0812,-0.0812 0.0754,-0.23782 l 0.680109,0.0623 q -0.04641,0.385737 -0.310326,0.649657 -0.321925,0.32193 -0.756963,0.32483 -0.435038,0.003 -0.754064,-0.31613 -0.317577,-0.31757 -0.316126,-0.756957 0.0029,-0.440837 0.324825,-0.762764 0.314677,-0.31468 0.742467,-0.31323 0.427781,-10e-4 0.741007,0.31178 0.0319,0.0319 0.09585,0.10716 z"
     id="text9"
     style="font-size:4.2px;font-family:'Bauhaus 93';-inkscape-font-specification:'Bauhaus 93, Normal';text-anchor:middle;fill:#91eaff"
     aria-label="Gate" /><circle
     cx="20.260715"
     cy="117.14618"
     fill="#191e26"
     stroke="#51eaff"
     stroke-width="0.5"
     id="circle9"
     style="font-size:4.2px;font-family:Montserrat, Arial;text-anchor:middle"
     r="5" /><circle
     cx="31.708347"
     y="85"
     fill="#191e26"
     stroke="#51eaff"
     stroke-width="0.5"
     id="circle3-1"
     cy="24.829176"
     style="font-size:4.2px;font-family:Montserrat, Arial;text-anchor:middle"
     r="5" /><circle
     cx="31.708347"
     cy="40.387512"
     fill="#191e26"
     stroke="#51eaff"
     stroke-width="0.5"
     id="circle4-7"
     style="font-size:4.2px;font-family:Montserrat, Arial;text-anchor:middle"
     r="5" /><circle
     cx="31.708347"
     cy="55.445866"
     fill="#191e26"
     stroke="#51eaff"
     stroke-width="0.5"
     id="circle5-1"
     style="font-size:4.2px;font-family:Montserrat, Arial;text-anchor:middle"
     r="5" /><circle
     cx="31.708347"
     cy="71.004219"
     fill="#191e26"
     stroke="#51eaff"
     stroke-width="0.5"
     id="circle6-1"
     style="font-size:4.2px;font-family:Montserrat, Arial;text-anchor:middle"
     r="5" /><circle
     cx="31.708347"
     cy="86.562553"
     fill="#191e26"
     stroke="#51eaff"
     stroke-width="0.5"
     id="circle7-5"
     style="font-size:4.2px;font-family:Montserrat, Arial;text-anchor:middle"
     r="5" /><circle
     cx="31.708347"
     cy="101.62086"
     fill="#191e26"
     stroke="#51eaff"
     stroke-width="0.5"
     id="circle8-2"
     style="font-size:4.2px;font-family:Montserrat, Arial;text-anchor:middle"
     r="5" /><circle
     cx="31.708347"
     cy="117.17918"
     fill="#191e26"
     stroke="#51eaff"
     stroke-width="0.5"
     id="circle9-7"
     style="font-size:4.2px;font-family:Montserrat, Arial;text-anchor:middle"
     r="5" /><circle
     cx="44.937527"
     y="85"
     fill="#191e26"
     stroke="#51eaff"
     stroke-width="0.5"
     id="circle3-6"
     cy="24.829176"
     style="font-size:4.2px;font-family:Montserrat, Arial;text-anchor:middle"
     r="5" /><circle
     cx="44.937527"
     cy="40.387512"
     fill="#191e26"
     stroke="#51eaff"
     stroke-width="0.5"
     id="circle4-1"
     style="font-size:4.2px;font-family:Montserrat, Arial;text-anchor:middle"
     r="5" /><circle
     cx="44.937527"
     cy="55.445866"
     fill="#191e26"
     stroke="#51eaff"
     stroke-width="0.5"
     id="circle5-4"
     style="font-size:4.2px;font-family:Montserrat, Arial;text-anchor:middle"
     r="5" /><circle
     cx="44.937527"
     cy="71.004219"
     fill="#191e26"
     stroke="#51eaff"
     stroke-width="0.5"
     id="circle6-2"
     style="font-size:4.2px;font-family:Montserrat, Arial;text-anchor:middle"
     r="5" /><circle
     cx="44.937527"
     cy="86.562553"
     fill="#191e26"
     stroke="#51eaff"
     stroke-width="0.5"
     id="circle7-3"
     style="font-size:4.2px;font-family:Montserrat, Arial;text-anchor:middle"
     r="5" /><circle
     cx="44.937527"
     cy="101.62086"
     fill="#191e26"
     stroke="#51eaff"
     stroke-width="0.5"
     id="circle8-22"
     style="font-size:4.2px;font-family:Montserrat, Arial;text-anchor:middle"
     r="5" /><circle
     cx="44.937527"
     cy="117.17918"
     fill="#191e26"
     stroke="#51eaff"
     stroke-width="0.5"
     id="circle9-1"
     style="font-size:4.2px;font-family:Montserrat, Arial;text-anchor:middle"
     r="5" /><circle
     cx="56.050037"
     y="85"
     fill="#191e26"
     stroke="#51eaff"
     stroke-width="0.5"
     id="circle3-68"
     cy="24.829176"
     style="font-size:4.2px;font-family:Montserrat, Arial;text-anchor:middle"
     r="5" /><circle
     cx="56.050037"
     cy="40.387512"
     fill="#191e26"
     stroke="#51eaff"
     stroke-width="0.5"
     id="circle4-5"
     style="font-size:4.2px;font-family:Montserrat, Arial;text-anchor:middle"
     r="5" /><circle
     cx="56.050037"
     cy="55.445866"
     fill="#191e26"
     stroke="#51eaff"
     stroke-width="0.5"
     id="circle5-7"
     style="font-size:4.2px;font-family:Montserrat, Arial;text-anchor:middle"
     r="5" /><circle
     cx="56.050037"
     cy="71.004219"
     fill="#191e26"
     stroke="#51eaff"
     stroke-width="0.5"
     id="circle6-6"
     style="font-size:4.2px;font-family:Montserrat, Arial;text-anchor:middle"
     r="5" /><circle
     cx="56.050037"
     cy="86.562553"
     fill="#191e26"
     stroke="#51eaff"
     stroke-width="0.5"
     id="circle7-1"
     style="font-size:4.2px;font-family:Montserrat, Arial;text-anchor:middle"
     r="5" /><circle
     cx="56.050037"
     cy="101.62086"
     fill="#191e26"
     stroke="#51eaff"
     stroke-width="0.5"
     id="circle8-8"
     style="font-size:4.2px;font-family:Montserrat, Arial;text-anchor:middle"
     r="5" /><circle
     cx="56.050037"
     cy="117.17918"
     fill="#191e26"
     stroke="#51eaff"
     stroke-width="0.5"
     id="circle9-9"
     style="font-size:4.2px;font-family:Montserrat, Arial;text-anchor:middle"
     r="5" /><path
     d="m 5.2563157,119.3935 0.5640937,0.5641 q -0.08556,0.042 -0.1203917,0.0768 -0.06668,0.0667 -0.06527,0.16385 0.0014,0.0971 0.07104,0.16677 0.05947,0.0595 0.2029967,0.0986 l 0.123284,0.0333 q 0.3335207,0.0899 0.5307397,0.28713 0.2885697,0.28857 0.2827717,0.6946 -0.0043,0.40459 -0.3001737,0.70042 -0.142107,0.1421 -0.3465877,0.21605 l -0.5727987,-0.5728 q 0.137779,-0.0304 0.2030307,-0.0957 0.07686,-0.0769 0.08413,-0.1711 0.0072,-0.0972 -0.05947,-0.16384 -0.04349,-0.0435 -0.2726247,-0.10731 -0.3639827,-0.10006 -0.5959987,-0.33207 -0.2798727,-0.27988 -0.2827717,-0.68011 -0.0029,-0.40314 0.2740737,-0.68011 0.121807,-0.12181 0.2798587,-0.19869 z m 0.7497097,-0.73231 0.5539397,0.55394 0.24362,-0.24362 0.5727984,0.5728 -0.2436197,0.24362 q 0.17257,0.17257 0.2914907,0.18415 0.120349,0.0102 0.265384,-0.13485 l 0.5698997,0.5699 q -0.04066,0.0435 -0.06095,0.0638 -0.184166,0.18416 -0.4335897,0.26247 -0.247969,0.0769 -0.4930377,0.029 -0.311777,-0.0624 -0.6206557,-0.37123 l -1.1876484,-1.18765 z m 1.8227931,-0.78452 0.5800537,0.58005 q -0.08846,0.0247 -0.134853,0.0711 -0.147912,0.14792 0.07831,0.37413 l 0.6859144,0.68592 -0.5423437,0.54234 -0.7903184,-0.79032 q -0.313227,-0.31322 -0.32773,-0.66995 -0.01595,-0.35818 0.269726,-0.64386 0.06378,-0.0638 0.181295,-0.14933 z m 2.4057525,-0.75551 -0.8222164,0.82222 q -0.08125,-0.0435 -0.133438,-0.0957 -0.07251,-0.0725 -0.116022,-0.16821 l 0.275524,-0.27552 q -0.189957,-0.13198 -0.342232,0.0203 -0.101505,0.1015 -0.07831,0.25232 0.02178,0.14934 0.156638,0.2842 0.140665,0.14067 0.288549,0.16679 0.1493757,0.0246 0.2494247,-0.0754 0.0812,-0.0812 0.07541,-0.23781 l 0.6801087,0.0623 q -0.04641,0.38573 -0.310328,0.64965 -0.3219237,0.32193 -0.7569644,0.32483 -0.43504,0.003 -0.7540647,-0.31613 -0.3175757,-0.31757 -0.3161267,-0.75696 0.0029,-0.44083 0.3248307,-0.76276 0.3146767,-0.31468 0.7424617,-0.31323 0.4277857,-0.001 0.7410054,0.31177 0.03189,0.0319 0.09586,0.10717 z m -0.6366007,-2.05192 0.5539397,0.55394 0.24362,-0.24362 0.572799,0.5728 -0.24362,0.24362 q 0.17257,0.17257 0.291491,0.18415 0.120349,0.0102 0.265384,-0.13485 l 0.5699,0.5699 q -0.04066,0.0435 -0.06095,0.0638 -0.184166,0.18417 -0.433584,0.26247 -0.247968,0.0769 -0.493037,0.029 -0.311777,-0.0623 -0.620656,-0.37123 l -1.1876514,-1.18767 z m 2.7117187,-0.0841 0.517701,-0.55829 q 0.290034,0.33642 0.28133,0.74826 -0.0087,0.41184 -0.310328,0.71347 -0.319026,0.31902 -0.761314,0.31757 -0.440839,-0.003 -0.762763,-0.32482 -0.305979,-0.30598 -0.301631,-0.74537 0.0044,-0.43938 0.314684,-0.74971 0.271176,-0.27118 0.649655,-0.30743 0.378478,-0.0363 0.694605,0.17836 l -0.529305,0.56989 q -0.163865,-0.0217 -0.272625,0.087 -0.09281,0.0928 -0.09138,0.21315 0.0014,0.12035 0.09425,0.21318 0.09426,0.0943 0.220426,0.0957 0.127562,0 0.221848,-0.0943 0.137758,-0.13776 0.0348,-0.35673 z m 0.0029,-2.63051 0.604697,0.60469 q 0.03771,-0.23782 0.175468,-0.37558 0.208816,-0.20881 0.481441,-0.17981 0.274075,0.0275 0.530747,0.28422 l 0.916481,0.91648 -0.542351,0.54235 -0.764219,-0.76422 q -0.09281,-0.0928 -0.145,-0.10441 -0.05077,-0.013 -0.107296,0.0435 -0.09136,0.0914 0.0435,0.22622 l 0.785971,0.78597 -0.542344,0.54235 -1.979418,-1.97942 z"
     id="text10"
     style="font-size:4.2px;font-family:'Bauhaus 93';-inkscape-font-specification:'Bauhaus 93, Normal';text-anchor:middle;fill:#91eaff"
     aria-label="Stretch" /><!-- Jacks --><circle
     cx="184.75345"
     cy="113.94167"
     r="5"
     fill="#27384a"
     stroke="#5ae0ff"
     stroke-width="0.7"
     id="circle11" /><path
     d="m 184.06658,119.64871 v 2.35128 h -0.69936 v -2.35128 z m 0.42202,2.35128 v -1.52618 q 0,-0.40136 0.23944,-0.64251 0.24116,-0.24116 0.64079,-0.24116 0.39791,0 0.60806,0.23427 0.21188,0.23426 0.21188,0.67351 v 1.50207 h -0.69936 v -1.50207 q 0,-0.21531 -0.15331,-0.21531 -0.14814,0 -0.14814,0.21531 v 1.50207 z"
     id="text11"
     style="font-size:3.52778px;font-family:'Bauhaus 93';-inkscape-font-specification:'Bauhaus 93, Normal';text-anchor:middle;fill:#d1f3ff"
     aria-label="IN" /><circle
     cx="200.23567"
     cy="113.94167"
     r="5"
     fill="#34322a"
     stroke="#ffe083"
     stroke-width="0.7"
     id="circle12" /><path
     d="m 195.0851,119.64871 h 0.85438 q 0.75965,0 0.75965,0.59772 0,0.29628 -0.26011,0.49265 0.37724,0.16364 0.37724,0.58395 0,0.32211 -0.22221,0.51331 -0.10852,0.0913 -0.23254,0.12747 -0.12403,0.0362 -0.33418,0.0362 h -0.13263 v -0.60462 h 0.11885 q 0.10508,0 0.14814,-0.0258 0.0431,-0.0276 0.0431,-0.0947 0,-0.11368 -0.1757,-0.11368 h -0.13435 v -0.62701 q 0.19292,0 0.19292,-0.13264 0,-0.1223 -0.17398,-0.1223 h -0.12919 v 1.72083 h -0.69935 z m 3.67075,0 -0.6649,1.04558 v 1.3057 h -0.69936 v -1.3057 l -0.67007,-1.04558 h 0.70969 l 0.30317,0.48403 0.32556,-0.48403 z m 0.88194,1.53823 v -0.61667 q 0.21188,0 0.21188,-0.16192 0,-0.14814 -0.16192,-0.14814 -0.16364,0 -0.16364,0.20326 v 1.53652 h -0.69936 v -1.46417 q 0,-0.22738 0.0448,-0.37207 0.0465,-0.14642 0.15675,-0.27216 0.12402,-0.13953 0.31006,-0.22049 0.18603,-0.081 0.38413,-0.081 0.35829,0 0.60117,0.24116 0.2446,0.24115 0.2446,0.59772 0,0.34623 -0.21877,0.56155 -0.19981,0.1981 -0.60289,0.1981 z m 2.07051,-0.3669 v 0.62012 h -0.20154 v 0.55983 h -0.69935 v -1.49518 q 0,-0.43408 0.23598,-0.67351 0.23772,-0.24116 0.66663,-0.24116 0.41341,0 0.61151,0.21876 0.19809,0.21705 0.19809,0.6718 v 1.51929 h -0.69936 v -1.47278 q 0,-0.13781 -0.0327,-0.19121 -0.0327,-0.0534 -0.11714,-0.0534 -0.16364,0 -0.16364,0.2446 v 0.29283 z m 2.33922,-1.18167 v 0.67007 q -0.0758,-0.0258 -0.11713,-0.0258 -0.0792,0 -0.13609,0.0586 -0.0568,0.0586 -0.0568,0.14125 0,0.0706 0.062,0.17915 l 0.0534,0.093 q 0.1447,0.2515 0.1447,0.48576 0,0.34279 -0.24461,0.5805 -0.24288,0.23771 -0.59428,0.23771 -0.16881,0 -0.33417,-0.0775 v -0.68041 q 0.0999,0.0637 0.17742,0.0637 0.0913,0 0.15159,-0.0517 0.062,-0.0534 0.062,-0.13264 0,-0.0517 -0.0982,-0.22565 -0.15675,-0.27561 -0.15675,-0.55122 0,-0.33245 0.23599,-0.57188 0.23771,-0.24116 0.56672,-0.24116 0.14469,0 0.28422,0.0482 z m 1.459,0 v 0.67007 q -0.0758,-0.0258 -0.11714,-0.0258 -0.0792,0 -0.13608,0.0586 -0.0568,0.0586 -0.0568,0.14125 0,0.0706 0.062,0.17915 l 0.0534,0.093 q 0.14469,0.2515 0.14469,0.48576 0,0.34279 -0.2446,0.5805 -0.24288,0.23771 -0.59428,0.23771 -0.16881,0 -0.33417,-0.0775 v -0.68041 q 0.0999,0.0637 0.17742,0.0637 0.0913,0 0.15159,-0.0517 0.062,-0.0534 0.062,-0.13264 0,-0.0517 -0.0982,-0.22565 -0.15675,-0.27561 -0.15675,-0.55122 0,-0.33245 0.23599,-0.57188 0.23771,-0.24116 0.56672,-0.24116 0.14469,0 0.28422,0.0482 z"
     id="text12"
     style="font-size:3.52778px;font-family:'Bauhaus 93';-inkscape-font-specification:'Bauhaus 93, Normal';text-anchor:middle;fill:#fff5c8"
     aria-label="BYPASS" /><circle
     cx="214.74957"
     cy="113.94167"
     r="5"
     fill="#23382a"
     stroke="#7bffd1"
     stroke-width="0.7"
     id="circle13" /><path
     d="m 214.14214,120.75631 v 0.63045 h -0.23254 v 0.61323 h -0.69936 v -1.459 q 0,-0.41169 0.25322,-0.68041 0.25493,-0.27044 0.64078,-0.27044 0.42547,0 0.71142,0.3669 l -0.57361,0.41858 q -0.0482,-0.13436 -0.17053,-0.13436 -0.16192,0 -0.16192,0.22394 v 0.29111 z m 2.43396,-1.1076 -0.6115,1.14377 0.63217,1.20751 h -0.73553 l -0.28938,-0.57017 -0.24461,0.57017 h -0.72347 l 0.64596,-1.18856 -0.61151,-1.16272 h 0.72864 l 0.27389,0.53399 0.22048,-0.53399 z"
     id="text13"
     style="font-size:3.52778px;font-family:'Bauhaus 93';-inkscape-font-specification:'Bauhaus 93, Normal';text-anchor:middle;fill:#a6ffe0"
     aria-label="FX" /><!-- Decoração espectral --><!-- Rodapé assinatura --><path
     d="m 99.730353,124.96152 q 0.259766,0 0.507227,0.13399 0.24746,0.13262 0.38555,0.38144 0.13808,0.24746 0.13808,0.5168 0,0.2666 -0.13672,0.5127 -0.13535,0.24609 -0.38144,0.38281 -0.244728,0.13535 -0.512697,0.13535 -0.267969,0 -0.514063,-0.13535 -0.244726,-0.13672 -0.381445,-0.38281 -0.136719,-0.2461 -0.136719,-0.5127 0,-0.26934 0.138086,-0.5168 0.139453,-0.24882 0.386914,-0.38144 0.247461,-0.13399 0.507227,-0.13399 z m 0,0.1709 q -0.217383,0 -0.423828,0.11211 -0.205078,0.11074 -0.321289,0.31856 -0.116211,0.20644 -0.116211,0.43066 0,0.22285 0.113476,0.42793 0.114844,0.20371 0.319922,0.31855 0.205078,0.11348 0.42793,0.11348 0.222852,0 0.427927,-0.11348 0.20508,-0.11484 0.31856,-0.31855 0.11347,-0.20508 0.11347,-0.42793 0,-0.22422 -0.11621,-0.43066 -0.11484,-0.20782 -0.32129,-0.31856 -0.206441,-0.11211 -0.422457,-0.11211 z m 0.330857,1.02813 0.16817,0.0492 q -0.041,0.17089 -0.175,0.27343 -0.132621,0.10118 -0.32266,0.10118 -0.240625,0 -0.391015,-0.15586 -0.150391,-0.15586 -0.150391,-0.43204 0,-0.18046 0.06836,-0.31308 0.06836,-0.13399 0.194141,-0.20098 0.127148,-0.0684 0.289844,-0.0684 0.181836,0 0.302151,0.0875 0.12031,0.0861 0.16406,0.23516 l -0.1627,0.0396 q -0.041,-0.10117 -0.121675,-0.15449 -0.0793,-0.0547 -0.187305,-0.0547 -0.157227,0 -0.259766,0.11211 -0.101172,0.11211 -0.101172,0.32129 0,0.20918 0.0957,0.31718 0.09707,0.10664 0.250195,0.10664 0.123047,0 0.216015,-0.0711 0.09297,-0.0711 0.123048,-0.19277 z m 2.8834,0.60293 V 127 h -1.3248 q -0.003,-0.0889 0.0287,-0.1709 0.0506,-0.13535 0.16132,-0.2666 0.11211,-0.13125 0.32266,-0.30352 0.32676,-0.26796 0.4416,-0.42382 0.11485,-0.15723 0.11485,-0.29668 0,-0.14629 -0.10528,-0.2461 -0.1039,-0.10117 -0.27207,-0.10117 -0.17773,0 -0.28437,0.10664 -0.10664,0.10664 -0.10801,0.29531 l -0.25293,-0.026 q 0.026,-0.28301 0.19551,-0.43067 0.16953,-0.14902 0.45527,-0.14902 0.28848,0 0.45664,0.15996 0.16817,0.15996 0.16817,0.39649 0,0.12031 -0.0492,0.23652 -0.0492,0.11621 -0.16407,0.24473 -0.11347,0.12851 -0.37871,0.35273 -0.22148,0.18594 -0.28437,0.25293 -0.0629,0.0656 -0.10391,0.13262 z m 0.26387,-0.75196 q 0,-0.35547 0.0725,-0.57148 0.0738,-0.21738 0.21738,-0.33496 0.14492,-0.11758 0.36367,-0.11758 0.16133,0 0.28301,0.0656 0.12168,0.0643 0.20098,0.1873 0.0793,0.12168 0.12441,0.29805 0.0451,0.175 0.0451,0.47304 0,0.35274 -0.0725,0.57012 -0.0725,0.21602 -0.21738,0.33496 -0.14356,0.11758 -0.36368,0.11758 -0.28984,0 -0.45527,-0.20781 -0.19824,-0.2502 -0.19824,-0.81485 z m 0.25293,0 q 0,0.49356 0.11484,0.65762 0.11621,0.1627 0.28574,0.1627 0.16953,0 0.28438,-0.16407 0.11621,-0.16406 0.11621,-0.65625 0,-0.49492 -0.11621,-0.65761 -0.11485,-0.1627 -0.28711,-0.1627 -0.16953,0 -0.2707,0.14356 -0.12715,0.1832 -0.12715,0.67675 z m 2.59765,0.75196 V 127 h -1.3248 q -0.003,-0.0889 0.0287,-0.1709 0.0506,-0.13535 0.16133,-0.2666 0.11211,-0.13125 0.32265,-0.30352 0.32676,-0.26796 0.44161,-0.42382 0.11484,-0.15723 0.11484,-0.29668 0,-0.14629 -0.10527,-0.2461 -0.10391,-0.10117 -0.27207,-0.10117 -0.17774,0 -0.28438,0.10664 -0.10664,0.10664 -0.10801,0.29531 l -0.25293,-0.026 q 0.026,-0.28301 0.19551,-0.43067 0.16953,-0.14902 0.45527,-0.14902 0.28848,0 0.45665,0.15996 0.16816,0.15996 0.16816,0.39649 0,0.12031 -0.0492,0.23652 -0.0492,0.11621 -0.16406,0.24473 -0.11348,0.12851 -0.37871,0.35273 -0.22149,0.18594 -0.28438,0.25293 -0.0629,0.0656 -0.1039,0.13262 z m 0.26387,-0.28848 0.2584,-0.0219 q 0.0287,0.18867 0.13262,0.28437 0.10527,0.0943 0.25293,0.0943 0.17773,0 0.30078,-0.13399 0.12304,-0.13398 0.12304,-0.35547 0,-0.21054 -0.11894,-0.33222 -0.11758,-0.12168 -0.30899,-0.12168 -0.11894,0 -0.21464,0.0547 -0.0957,0.0533 -0.15039,0.13946 l -0.23106,-0.0301 0.19414,-1.02949 h 0.99668 v 0.23515 h -0.7998 l -0.10801,0.53868 q 0.18047,-0.12579 0.37871,-0.12579 0.2625,0 0.44297,0.18184 0.18047,0.18184 0.18047,0.46758 0,0.27207 -0.1586,0.47031 -0.19277,0.24336 -0.52636,0.24336 -0.27344,0 -0.44707,-0.15313 -0.17227,-0.15312 -0.19688,-0.40605 z m 2.42676,0.525 v -2.0043 h 0.39922 l 0.47441,1.41914 q 0.0656,0.19825 0.0957,0.29668 0.0342,-0.10937 0.10664,-0.32129 l 0.47989,-1.39453 h 0.35683 V 127 h -0.25566 v -1.67754 L 109.8243,127 h -0.23926 l -0.57969,-1.70625 V 127 Z m 2.3789,0 v -0.28027 h 0.28028 V 127 Z m 0.74375,0 v -2.0043 h 0.88868 q 0.26796,0 0.40742,0.0547 0.13945,0.0533 0.22285,0.19004 0.0834,0.13672 0.0834,0.30215 0,0.21328 -0.13809,0.35957 -0.13808,0.14629 -0.42656,0.18594 0.10527,0.0506 0.15996,0.0998 0.11621,0.10664 0.22012,0.2666 L 113.63875,127 h -0.33359 l -0.26524,-0.41699 q -0.11621,-0.18047 -0.1914,-0.27617 -0.0752,-0.0957 -0.13536,-0.13399 -0.0588,-0.0383 -0.12031,-0.0533 -0.0451,-0.01 -0.14765,-0.01 h -0.30762 V 127 Z m 0.26524,-1.11973 h 0.57012 q 0.18183,0 0.28437,-0.0369 0.10254,-0.0383 0.15586,-0.12031 0.0533,-0.0834 0.0533,-0.18047 0,-0.14219 -0.10391,-0.23379 -0.10253,-0.0916 -0.32539,-0.0916 h -0.63437 z m 1.62969,0.39375 q 0,-0.40332 0.22422,-0.59746 0.1873,-0.16133 0.45664,-0.16133 0.29941,0 0.48945,0.19688 0.19004,0.19551 0.19004,0.54141 0,0.28027 -0.0848,0.4416 -0.0834,0.15996 -0.24472,0.24883 -0.15996,0.0889 -0.35,0.0889 -0.30489,0 -0.49356,-0.19551 -0.1873,-0.1955 -0.1873,-0.56328 z m 0.25293,0 q 0,0.27891 0.12168,0.41836 0.12168,0.13809 0.30625,0.13809 0.1832,0 0.30488,-0.13945 0.12168,-0.13946 0.12168,-0.4252 0,-0.26934 -0.12305,-0.40742 -0.12168,-0.13945 -0.30351,-0.13945 -0.18457,0 -0.30625,0.13808 -0.12168,0.13809 -0.12168,0.41699 z m 2.34335,0.19414 0.242,0.0315 q -0.0396,0.25019 -0.20371,0.39238 -0.1627,0.14082 -0.40059,0.14082 -0.29805,0 -0.47988,-0.19414 -0.18047,-0.19551 -0.18047,-0.55918 0,-0.23515 0.0779,-0.41152 0.0779,-0.17637 0.23652,-0.26387 0.15996,-0.0889 0.34727,-0.0889 0.23652,0 0.38691,0.12032 0.15039,0.11894 0.19277,0.33906 l -0.23925,0.0369 q -0.0342,-0.14629 -0.12168,-0.22011 -0.0861,-0.0738 -0.20918,-0.0738 -0.18594,0 -0.30215,0.13398 -0.11621,0.13262 -0.11621,0.4211 0,0.29257 0.11211,0.42519 0.11211,0.13262 0.29258,0.13262 0.14492,0 0.24199,-0.0889 0.0971,-0.0889 0.12304,-0.27344 z M 116.8161,127 v -2.0043 h 0.24609 v 0.71914 q 0.17226,-0.19961 0.43476,-0.19961 0.16133,0 0.28028,0.0643 0.11894,0.0629 0.16953,0.175 0.052,0.11211 0.052,0.32539 V 127 h -0.24609 v -0.92012 q 0,-0.18457 -0.0807,-0.26797 -0.0793,-0.0848 -0.22558,-0.0848 -0.10938,0 -0.20645,0.0574 -0.0957,0.0561 -0.13672,0.15313 -0.041,0.0971 -0.041,0.26796 V 127 Z m 2.50468,-0.1791 q -0.13672,0.11621 -0.26386,0.16406 -0.12579,0.0478 -0.27071,0.0478 -0.23926,0 -0.36777,-0.11621 -0.12852,-0.11758 -0.12852,-0.29941 0,-0.10664 0.0479,-0.19414 0.0492,-0.0889 0.12715,-0.14219 0.0793,-0.0533 0.17774,-0.0807 0.0725,-0.0191 0.21875,-0.0369 0.29804,-0.0356 0.43886,-0.0848 0.001,-0.0506 0.001,-0.0643 0,-0.15039 -0.0697,-0.21192 -0.0943,-0.0834 -0.28028,-0.0834 -0.17363,0 -0.25703,0.0615 -0.082,0.0602 -0.12168,0.21465 l -0.24062,-0.0328 q 0.0328,-0.15449 0.108,-0.24882 0.0752,-0.0957 0.21739,-0.14629 0.14218,-0.052 0.32949,-0.052 0.18594,0 0.30215,0.0438 0.11621,0.0437 0.1709,0.11075 0.0547,0.0656 0.0766,0.16679 0.0123,0.0629 0.0123,0.22696 v 0.32812 q 0,0.34317 0.015,0.43477 0.0164,0.0902 0.0629,0.17363 H 119.37 q -0.0383,-0.0766 -0.0492,-0.1791 z m -0.0205,-0.54961 q -0.13398,0.0547 -0.40195,0.093 -0.15176,0.0219 -0.21465,0.0492 -0.0629,0.0273 -0.0971,0.0807 -0.0342,0.052 -0.0342,0.11621 0,0.0984 0.0738,0.16406 0.0752,0.0656 0.21875,0.0656 0.14219,0 0.25293,-0.0615 0.11074,-0.0629 0.1627,-0.1709 0.0396,-0.0834 0.0396,-0.2461 z"
     id="text14"
     style="font-size:2.8px;font-family:Arial;text-anchor:middle;fill:#4efcfa"
     aria-label="© 2025 M.Rocha" /><path
     d="m 144.19685,103.8362 h 1.11897 v 2.23518 q 0,0.26183 0.0827,0.35002 0.0854,0.0854 0.33348,0.0854 h 0.0579 v 1.0914 h -0.29765 q -0.61185,0 -0.95361,-0.35553 -0.34175,-0.35829 -0.34175,-0.99219 z"
     id="text15"
     style="font-size:5.64444px;font-family:'Bauhaus 93';-inkscape-font-specification:'Bauhaus 93, Normal';fill:#57f2ff;stroke:#000000;stroke-width:0;stroke-linecap:round"
     aria-label="L" /><path
     d="m 199.95024,104.4391 v 2.75056 h -1.11897 v -3.76204 h 1.43592 q 0.65594,0 1.01699,0.32521 0.40238,0.36381 0.40238,0.92329 0,0.57051 -0.49884,0.96187 l 0.64492,1.55167 h -1.17409 l -0.54295,-1.21267 v -0.96739 h 0.0882 q 0.35277,0 0.35277,-0.30316 0,-0.26734 -0.40789,-0.26734 z"
     id="text15-5"
     style="font-size:5.64444px;font-family:'Bauhaus 93';-inkscape-font-specification:'Bauhaus 93, Normal';fill:#57f2ff;stroke:#000000;stroke-width:0;stroke-linecap:round"
     aria-label="R" /><path
     d="m 25.080568,13.88354 h 1.118971 v 2.235166 q 0,0.26183 0.0827,0.35002 0.0854,0.0854 0.33348,0.0854 h 0.0579 v 1.091394 h -0.29765 q -0.611851,0 -0.953611,-0.35553 -0.34175,-0.358287 -0.34175,-0.992184 z"
     id="text15-7"
     style="font-size:5.64444px;font-family:'Bauhaus 93';-inkscape-font-specification:'Bauhaus 93, Normal';fill:#57f2ff;stroke:#000000;stroke-width:0;stroke-linecap:round"
     aria-label="L" /><path
     d="m 50.142281,14.486437 v 2.750543 h -1.11897 v -3.76202 h 1.43592 q 0.65594,0 1.01699,0.32521 0.40238,0.363807 0.40238,0.923284 0,0.570508 -0.49884,0.961865 l 0.64492,1.551661 h -1.17409 l -0.54295,-1.212661 v -0.967388 h 0.0882 q 0.35277,0 0.35277,-0.303157 0,-0.267337 -0.40789,-0.267337 z"
     id="text15-5-9"
     style="font-size:5.64444px;font-family:'Bauhaus 93';-inkscape-font-specification:'Bauhaus 93, Normal';fill:#57f2ff;stroke:#000000;stroke-width:0;stroke-linecap:round"
     aria-label="R" /></svg>
