<?xml version="1.0" encoding="UTF-8" standalone="no"?>
<!-- Created with Inkscape (http://www.inkscape.org/) -->

<svg
   width="218.44mm"
   height="128.5mm"
   viewBox="0 0 218.44003 128.50002"
   version="1.1"
   id="svg8"
   inkscape:version="1.4 (86a8ad7, 2024-10-11)"
   sodipodi:docname="SpectroFX.svg"
   xmlns:inkscape="http://www.inkscape.org/namespaces/inkscape"
   xmlns:sodipodi="http://sodipodi.sourceforge.net/DTD/sodipodi-0.dtd"
   xmlns="http://www.w3.org/2000/svg"
   xmlns:svg="http://www.w3.org/2000/svg"
   xmlns:rdf="http://www.w3.org/1999/02/22-rdf-syntax-ns#"
   xmlns:cc="http://creativecommons.org/ns#"
   xmlns:dc="http://purl.org/dc/elements/1.1/">
  <defs
     id="defs2" />
  <sodipodi:namedview
     id="base"
     pagecolor="#ffffff"
     bordercolor="#666666"
     borderopacity="1.0"
     inkscape:pageopacity="0.0"
     inkscape:pageshadow="2"
     inkscape:zoom="0.7"
     inkscape:cx="421.42857"
     inkscape:cy="181.42857"
     inkscape:document-units="mm"
     inkscape:current-layer="layer1"
     showgrid="false"
     units="mm"
     inkscape:snap-bbox="true"
     inkscape:snap-page="true"
     inkscape:bbox-nodes="false"
     inkscape:snap-bbox-edge-midpoints="false"
     inkscape:window-width="1600"
     inkscape:window-height="900"
     inkscape:window-x="0"
     inkscape:window-y="0"
     inkscape:window-maximized="0"
     inkscape:snap-bbox-midpoints="true"
     inkscape:snap-nodes="false"
     inkscape:showpageshadow="2"
     inkscape:pagecheckerboard="0"
     inkscape:deskcolor="#d1d1d1" />
  <metadata
     id="metadata5">
    <rdf:RDF>
      <cc:Work
         rdf:about="">
        <dc:format>image/svg+xml</dc:format>
        <dc:type
           rdf:resource="http://purl.org/dc/dcmitype/StillImage" />
      </cc:Work>
    </rdf:RDF>
  </metadata>
  <g
     inkscape:label="Layer 1"
     inkscape:groupmode="layer"
     id="layer1"
     transform="translate(0,-168.49998)">
    <rect
       style="display:inline;opacity:1;vector-effect:none;fill:#4d4d4d;fill-opacity:1;fill-rule:evenodd;stroke:none;stroke-width:1.73837;stroke-linecap:butt;stroke-linejoin:miter;stroke-miterlimit:4;stroke-dasharray:none;stroke-dashoffset:0;stroke-opacity:1;paint-order:normal"
       id="rect420"
       width="218.44"
       height="128.5"
       x="0.31750879"
       y="168.49997" />
    <path
       d="m 86.911233,172.78137 v 2.34988 q -0.26579,-0.0906 -0.41077,-0.0906 -0.27788,0 -0.47723,0.20538 -0.19934,0.2054 -0.19934,0.49536 0,0.24767 0.21747,0.62825 l 0.18726,0.3262 q 0.50743,0.88196 0.50743,1.70351 0,1.20213 -0.8578,2.03576 -0.85175,0.83364 -2.08408,0.83364 -0.592,0 -1.17192,-0.27184 v -2.38613 q 0.35037,0.22352 0.6222,0.22352 0.32017,0 0.5316,-0.18123 0.21747,-0.18727 0.21747,-0.46515 0,-0.18122 -0.34433,-0.79134 -0.54972,-0.96653 -0.54972,-1.93307 0,-1.16587 0.8276,-2.00555 0.83363,-0.84572 1.98743,-0.84572 0.50743,0 0.99673,0.16914 z m 3.20164,10.51103 h -2.25927 v -5.02596 q 0,-1.38334 0.7249,-2.25323 0.41682,-0.50138 1.05715,-0.79739 0.64636,-0.29599 1.32294,-0.29599 1.3471,0 2.27135,0.90611 0.92424,0.90614 0.92424,2.22303 0,1.28065 -0.9182,2.21095 -0.91821,0.93028 -2.1747,0.93028 -0.20539,0 -0.60408,-0.0423 v -2.48883 q 0.27787,0.22351 0.55575,0.22351 0.35037,0 0.59804,-0.25975 0.25372,-0.25976 0.25372,-0.61616 0,-0.35641 -0.25976,-0.60408 -0.25975,-0.25372 -0.6222,-0.25372 -0.86988,0 -0.86988,1.20213 z m 10.952007,-4.87494 h -3.42514 q -0.0785,-0.25975 -0.0785,-0.47722 0,-0.30204 0.10873,-0.59201 h 1.14775 q -0.12081,-0.67053 -0.7551,-0.67053 -0.42286,0 -0.68865,0.36246 -0.2658,0.35641 -0.2658,0.9182 0,0.58596 0.25371,0.94841 0.25976,0.36244 0.67658,0.36244 0.33828,0 0.6524,-0.33827 l 1.2867,1.54645 q -0.90009,0.70678 -1.99951,0.70678 -1.34107,0 -2.25323,-0.90009 -0.912157,-0.90008 -0.912157,-2.22907 0,-1.32293 0.918197,-2.23509 0.92425,-0.91217 2.26531,-0.91217 1.31086,0 2.19886,0.89403 0.89404,0.88801 0.89404,2.19282 0,0.13291 -0.0242,0.42286 z m 4.63332,-0.12682 2.24114,-0.0846 q -0.0967,1.30482 -0.97257,2.1445 -0.87592,0.83967 -2.13241,0.83967 -1.32898,0 -2.24719,-0.92424 -0.91216,-0.92425 -0.91216,-2.26531 0,-1.27461 0.92424,-2.18073 0.92425,-0.90614 2.21699,-0.90614 1.12963,0 1.99347,0.71282 0.86384,0.71283 1.07527,1.81829 l -2.28948,0.0846 q -0.296,-0.38662 -0.74906,-0.38662 -0.38661,0 -0.63429,0.25372 -0.24767,0.25372 -0.24767,0.64032 0,0.39266 0.25976,0.65845 0.26579,0.26581 0.65845,0.26581 0.57387,0 0.81551,-0.67054 z m 5.23739,-5.47299 v 2.30759 h 1.01487 v 2.38613 h -1.01487 q 0,0.71887 0.2235,0.9907 0.22956,0.27184 0.83364,0.27184 v 2.37404 q -0.17518,0.006 -0.25975,0.006 -0.76718,0 -1.4498,-0.35642 -0.67658,-0.3564 -1.08735,-0.96653 -0.51951,-0.77926 -0.51951,-2.06596 v -4.94744 z m 5.43071,2.16261 v 2.41634 q -0.23561,-0.13291 -0.4289,-0.13291 -0.61617,0 -0.61617,0.94237 v 2.85732 h -2.25927 v -3.29225 q 0,-1.30483 0.71282,-2.07804 0.71281,-0.77928 1.90285,-0.77928 0.26581,0 0.68867,0.0665 z m 3.52179,-0.0665 q 1.28066,0 2.19282,0.92425 0.91821,0.9182 0.91821,2.2049 0,1.30482 -0.9303,2.22303 -0.92423,0.9182 -2.23509,0.9182 -1.31086,0 -2.24116,-0.9182 -0.93028,-0.92425 -0.93028,-2.22303 0,-1.32294 0.93028,-2.22302 0.9303,-0.90613 2.29552,-0.90613 z m -0.0604,2.22906 q -0.36245,0 -0.61616,0.2658 -0.25371,0.25976 -0.25371,0.64032 0,0.37454 0.25371,0.64033 0.25976,0.26581 0.61616,0.26581 0.36245,0 0.61617,-0.26581 0.25975,-0.26579 0.25975,-0.64033 0,-0.38056 -0.25371,-0.64032 -0.25372,-0.2658 -0.62221,-0.2658 z m 7.38189,-0.44097 v 2.21094 h -0.8155 v 2.15054 h -2.45259 v -5.11659 q 0,-1.44375 0.88801,-2.38612 0.89404,-0.94841 2.24718,-0.94841 1.49208,0 2.49486,1.2867 l -2.0116,1.46791 q -0.16913,-0.47118 -0.59803,-0.47118 -0.56783,0 -0.56783,0.7853 v 1.02091 z m 8.53569,-3.88426 -2.1445,4.01111 2.21698,4.23463 h -2.57943 l -1.01486,-1.99952 -0.8578,1.99952 h -2.53713 l 2.26529,-4.16818 -2.14448,-4.07756 h 2.55527 l 0.96048,1.87267 0.77323,-1.87267 z"
       id="text1"
       style="font-size:8.3313px;font-family:'Bauhaus 93';-inkscape-font-specification:'Bauhaus 93, @wght=300';font-variation-settings:'wght' 300;fill:#ffffff;stroke:#000000;stroke-width:0;stroke-linecap:round"
       aria-label="SpectroFX" />
    <path
       d="m 7.5292525,207.33491 v -1.9045 q 0,-0.1484 0.067606,-0.22261 0.067606,-0.0741 0.1747861,-0.0741 0.1104781,0 0.1780842,0.0741 0.069255,0.0726 0.069255,0.22261 v 1.9045 q 0,0.15006 -0.069255,0.22426 -0.067606,0.0741 -0.1780842,0.0741 -0.1055312,0 -0.1747861,-0.0741 -0.067606,-0.0759 -0.067606,-0.22426 z m 1.6753092,-1.9078 0.9415373,1.42467 v -1.43786 q 0,-0.14016 0.05936,-0.20942 0.06102,-0.071 0.163244,-0.071 0.105532,0 0.166543,0.071 0.06101,0.0692 0.06101,0.20942 v 1.90121 q 0,0.31825 -0.263829,0.31825 -0.06596,0 -0.118724,-0.0198 -0.05278,-0.0181 -0.09893,-0.0593 -0.04617,-0.0412 -0.08574,-0.0956 -0.039571,-0.0562 -0.07915,-0.11378 l -0.9184467,-1.4082 v 1.41643 q 0,0.13852 -0.064309,0.20941 -0.064309,0.071 -0.1648927,0.071 -0.1038824,0 -0.1665415,-0.071 -0.062659,-0.0725 -0.062659,-0.20941 v -1.86494 q 0,-0.11872 0.026383,-0.18632 0.03133,-0.0741 0.1038824,-0.12038 0.072552,-0.0478 0.1566481,-0.0478 0.065958,0 0.1121268,0.0214 0.047819,0.0215 0.082446,0.0578 0.036276,0.0363 0.072553,0.094 0.037925,0.0578 0.0775,0.12037 z m 3.4610963,1.93913 v -1.50052 q -0.418828,0.32155 -0.563934,0.32155 -0.06926,0 -0.123669,-0.0544 -0.05277,-0.0561 -0.05277,-0.12861 0,-0.0841 0.05277,-0.12367 0.05278,-0.0395 0.18633,-0.10224 0.199519,-0.094 0.318242,-0.19787 0.120372,-0.10388 0.212712,-0.2325 0.09234,-0.12862 0.120371,-0.1583 0.02803,-0.0297 0.105531,-0.0297 0.08739,0 0.14016,0.0676 0.05277,0.0676 0.05277,0.18632 v 1.88802 q 0,0.33144 -0.225902,0.33144 -0.100584,0 -0.161595,-0.0676 -0.06101,-0.0677 -0.06101,-0.19953 z"
       id="text2"
       style="font-size:4.23333px;font-family:'Arial Rounded MT Bold';-inkscape-font-specification:'Arial Rounded MT Bold, Normal';fill:#ffffff;stroke:#000000;stroke-width:0;stroke-linecap:round"
       aria-label="IN 1" />
    <path
       d="m 7.2543349,247.66568 v -1.90465 q 0,-0.14842 0.067611,-0.22262 0.067611,-0.0742 0.174799,-0.0742 0.1104863,0 0.1780972,0.0742 0.06926,0.0725 0.06926,0.22262 v 1.90465 q 0,0.15006 -0.06926,0.22427 -0.067611,0.0742 -0.1780972,0.0742 -0.105539,0 -0.174799,-0.0742 -0.067611,-0.0759 -0.067611,-0.22427 z m 1.675433,-1.90795 0.9416062,1.42478 v -1.43797 q 0,-0.14017 0.059363,-0.20943 0.061014,-0.0709 0.1632559,-0.0709 0.105539,0 0.166554,0.0709 0.06101,0.0692 0.06101,0.20943 v 1.90135 q 0,0.31827 -0.263848,0.31827 -0.06596,0 -0.1187317,-0.0198 -0.052773,-0.0181 -0.098943,-0.0594 -0.046174,-0.0412 -0.085751,-0.0956 -0.039577,-0.0561 -0.079155,-0.11379 l -0.9185196,-1.40826 v 1.41653 q 0,0.13852 -0.064313,0.20942 -0.064313,0.0709 -0.1649049,0.0709 -0.10389,0 -0.1665539,-0.0709 -0.062664,-0.0725 -0.062664,-0.20942 v -1.86508 q 0,-0.11873 0.026385,-0.18634 0.031332,-0.0742 0.10389,-0.12038 0.072558,-0.0478 0.1566595,-0.0478 0.065962,0 0.1121353,0.0215 0.047823,0.0215 0.082452,0.0578 0.036279,0.0363 0.072558,0.094 0.037928,0.0578 0.077506,0.12039 z m 3.2618171,1.77602 h 0.860803 q 0.128627,0 0.196237,0.0527 0.06761,0.0527 0.06761,0.14346 0,0.0808 -0.05442,0.13687 -0.05277,0.0561 -0.161607,0.0561 h -1.213699 q -0.123679,0 -0.192939,-0.0676 -0.06926,-0.0693 -0.06926,-0.16161 0,-0.0593 0.04452,-0.15666 0.04452,-0.0989 0.09729,-0.15501 0.219323,-0.22757 0.395771,-0.38918 0.176449,-0.16325 0.252305,-0.21437 0.135222,-0.0957 0.22427,-0.19129 0.0907,-0.0973 0.136872,-0.19789 0.04782,-0.10224 0.04782,-0.19954 0,-0.10553 -0.05112,-0.18798 -0.04947,-0.0841 -0.136871,-0.13028 -0.08575,-0.0462 -0.187992,-0.0462 -0.216025,0 -0.339704,0.18965 -0.01649,0.0247 -0.05607,0.13521 -0.03793,0.11049 -0.0874,0.16986 -0.04783,0.0593 -0.141819,0.0593 -0.08245,0 -0.136871,-0.0544 -0.05442,-0.0544 -0.05442,-0.14841 0,-0.11379 0.05112,-0.23746 0.05112,-0.12368 0.151713,-0.22428 0.102241,-0.10059 0.257251,-0.1616 0.15666,-0.0627 0.366089,-0.0627 0.252305,0 0.430402,0.0791 0.115433,0.0527 0.202833,0.14512 0.0874,0.0923 0.135221,0.21438 0.04947,0.12037 0.04947,0.25065 0,0.20449 -0.102241,0.37269 -0.100592,0.16655 -0.206131,0.2622 -0.105539,0.094 -0.354545,0.29683 -0.247357,0.20283 -0.339704,0.31497 -0.03958,0.0445 -0.0808,0.10718 z"
       id="text3"
       style="font-size:4.23333px;font-family:'Arial Rounded MT Bold';-inkscape-font-specification:'Arial Rounded MT Bold, Normal';fill:#ffffff;stroke:#000000;stroke-width:0;stroke-linecap:round"
       aria-label="IN 2" />
    <path
       d="m 6.9883288,225.29885 q 0.3759806,0 0.6447737,0.15337 0.2704422,0.15171 0.4089614,0.43369 0.1385192,0.28034 0.1385192,0.65961 0,0.28034 -0.075856,0.50956 -0.075856,0.22922 -0.2275672,0.39742 -0.1517115,0.1682 -0.3726825,0.25725 -0.220971,0.0891 -0.5062546,0.0891 -0.2836345,0 -0.5079036,-0.0907 -0.2242691,-0.0924 -0.3743316,-0.2589 -0.1500623,-0.16655 -0.2275671,-0.40071 -0.075856,-0.23417 -0.075856,-0.50626 0,-0.27869 0.079154,-0.5112 0.080803,-0.23251 0.2325143,-0.39577 0.1517114,-0.16326 0.3693844,-0.24901 0.217673,-0.0874 0.4947117,-0.0874 z m 0.695894,1.24338 q 0,-0.2655 -0.08575,-0.46008 -0.08575,-0.19459 -0.2457066,-0.29353 -0.1583076,-0.10059 -0.3644374,-0.10059 -0.1467643,0 -0.2720912,0.0561 -0.1236778,0.0544 -0.2143749,0.15995 -0.089048,0.10554 -0.1418173,0.27044 -0.05112,0.16326 -0.05112,0.36774 0,0.20612 0.05112,0.37268 0.052769,0.16655 0.1467644,0.27704 0.095644,0.10884 0.217673,0.16325 0.1236778,0.0544 0.2704421,0.0544 0.1879904,0 0.3446489,-0.094 0.1583077,-0.094 0.2506538,-0.29023 0.093995,-0.19624 0.093995,-0.48317 z m 0.9185139,0.21602 v -1.16257 q 0,-0.14841 0.065961,-0.22262 0.06761,-0.0742 0.1764471,-0.0742 0.1137836,0 0.1797451,0.0742 0.06761,0.0742 0.06761,0.22262 v 1.18896 q 0,0.20283 0.044524,0.3397 0.046173,0.13522 0.1616058,0.21107 0.1154326,0.0742 0.3232115,0.0742 0.2869321,0 0.4056628,-0.15172 0.118731,-0.15335 0.118731,-0.46337 v -1.19885 q 0,-0.15006 0.06596,-0.22262 0.06596,-0.0742 0.176447,-0.0742 0.110485,0 0.178096,0.0742 0.06926,0.0725 0.06926,0.22262 v 1.16256 q 0,0.28364 -0.05607,0.47328 -0.05442,0.18964 -0.207779,0.3331 -0.131922,0.12204 -0.306721,0.17811 -0.1747976,0.0561 -0.408961,0.0561 -0.2786875,0 -0.47987,-0.0594 -0.2011826,-0.061 -0.3281586,-0.18633 -0.126971,-0.12696 -0.1863363,-0.3232 -0.059365,-0.19788 -0.059365,-0.47162 z m 4.1324883,-1.01415 h -0.534288 v 1.75622 q 0,0.15171 -0.06761,0.22592 -0.06761,0.0725 -0.174798,0.0725 -0.108836,0 -0.178097,-0.0742 -0.06761,-0.0742 -0.06761,-0.22427 v -1.75622 h -0.534288 q -0.125327,0 -0.186341,-0.0544 -0.06101,-0.0561 -0.06101,-0.14677 0,-0.094 0.06267,-0.14841 0.06431,-0.0544 0.184692,-0.0544 h 1.556691 q 0.126976,0 0.187991,0.0561 0.06267,0.0561 0.06267,0.14676 0,0.0907 -0.06267,0.14676 -0.06267,0.0544 -0.187992,0.0544 z m 2.074489,1.78755 v -1.50062 q -0.418855,0.32156 -0.56397,0.32156 -0.06926,0 -0.123678,-0.0544 -0.05277,-0.0561 -0.05277,-0.12862 0,-0.0841 0.05277,-0.12368 0.05277,-0.0396 0.186341,-0.10224 0.199534,-0.094 0.318264,-0.19789 0.12038,-0.10389 0.212726,-0.23251 0.09235,-0.12862 0.12038,-0.15831 0.02803,-0.0297 0.105539,-0.0297 0.0874,0 0.140168,0.0676 0.05277,0.0676 0.05277,0.18635 v 1.88815 q 0,0.33145 -0.225918,0.33145 -0.100592,0 -0.161606,-0.0676 -0.06101,-0.0676 -0.06101,-0.19953 z"
       id="text5"
       style="font-size:4.23333px;font-family:'Arial Rounded MT Bold';-inkscape-font-specification:'Arial Rounded MT Bold, Normal';fill:#ffffff;stroke:#000000;stroke-width:0;stroke-linecap:round"
       aria-label="OUT 1" />
    <path
       d="m 6.7134187,265.62954 q 0.375983,0 0.6447778,0.15336 0.2704439,0.15171 0.408964,0.43369 0.1385201,0.28034 0.1385201,0.65963 0,0.28034 -0.075857,0.50956 -0.075856,0.22921 -0.2275686,0.39742 -0.1517125,0.1682 -0.3726849,0.25725 -0.2209724,0.089 -0.5062578,0.089 -0.2836363,0 -0.5079069,-0.0907 -0.2242705,-0.0923 -0.3743339,-0.25891 -0.1500634,-0.16655 -0.2275686,-0.40071 -0.075857,-0.23416 -0.075857,-0.50626 0,-0.27869 0.079155,-0.5112 0.080803,-0.23252 0.2325158,-0.39578 0.1517124,-0.16326 0.3693867,-0.249 0.2176744,-0.0874 0.4947149,-0.0874 z m 0.6958984,1.24338 q 0,-0.26549 -0.08575,-0.46009 -0.085751,-0.19458 -0.2457082,-0.29352 -0.1583086,-0.1006 -0.3644397,-0.1006 -0.1467652,0 -0.272093,0.0561 -0.1236785,0.0544 -0.2143762,0.15995 -0.089049,0.10554 -0.1418182,0.27045 -0.051121,0.16326 -0.051121,0.36773 0,0.20613 0.051121,0.37269 0.05277,0.16655 0.1467653,0.27704 0.095645,0.10884 0.2176744,0.16326 0.1236786,0.0544 0.2704439,0.0544 0.1879915,0 0.3446511,-0.094 0.1583086,-0.094 0.2506553,-0.29023 0.093996,-0.19624 0.093996,-0.48317 z m 0.9185198,0.21603 v -1.16259 q 0,-0.14841 0.065962,-0.22262 0.067611,-0.0742 0.1764482,-0.0742 0.1137843,0 0.1797462,0.0742 0.067611,0.0742 0.067611,0.22262 v 1.18897 q 0,0.20283 0.044524,0.3397 0.046174,0.13522 0.1616068,0.21108 0.1154334,0.0742 0.3232135,0.0742 0.2869345,0 0.4056659,-0.15171 0.1187315,-0.15336 0.1187315,-0.46339 v -1.19885 q 0,-0.15007 0.06596,-0.22262 0.06596,-0.0742 0.176448,-0.0742 0.110487,0 0.178097,0.0742 0.06926,0.0725 0.06926,0.22262 v 1.16258 q 0,0.28363 -0.05607,0.47327 -0.05442,0.18964 -0.20778,0.33311 -0.1319232,0.12203 -0.3067224,0.1781 -0.1747992,0.0561 -0.4089639,0.0561 -0.2786891,0 -0.4798729,-0.0593 -0.2011839,-0.061 -0.3281607,-0.18635 -0.1269767,-0.12698 -0.1863424,-0.32321 -0.059366,-0.19789 -0.059366,-0.47163 z m 4.1325151,-1.01417 H 11.92606 v 1.75624 q 0,0.15171 -0.06761,0.22592 -0.06761,0.0726 -0.174799,0.0726 -0.108837,0 -0.178097,-0.0742 -0.06761,-0.0742 -0.06761,-0.22427 v -1.75623 h -0.534292 q -0.125327,0 -0.186342,-0.0544 -0.06101,-0.0561 -0.06101,-0.14677 0,-0.094 0.06267,-0.14842 0.06431,-0.0544 0.184693,-0.0544 h 1.556702 q 0.126977,0 0.187992,0.0561 0.06266,0.0561 0.06266,0.14677 0,0.0907 -0.06266,0.14676 -0.06267,0.0544 -0.187992,0.0544 z m 1.874968,1.62431 h 0.860803 q 0.128625,0 0.196237,0.0527 0.06761,0.0527 0.06761,0.14347 0,0.0808 -0.05442,0.13687 -0.05277,0.0561 -0.161606,0.0561 h -1.2137 q -0.123679,0 -0.192939,-0.0676 -0.06926,-0.0693 -0.06926,-0.16161 0,-0.0593 0.04452,-0.15666 0.04452,-0.0989 0.09729,-0.155 0.219323,-0.22757 0.395771,-0.38918 0.176448,-0.16325 0.252304,-0.21437 0.135222,-0.0956 0.224271,-0.1913 0.0907,-0.0973 0.136871,-0.19788 0.04782,-0.10225 0.04782,-0.19954 0,-0.10553 -0.05112,-0.18799 -0.04947,-0.0841 -0.13687,-0.13027 -0.08575,-0.0462 -0.187991,-0.0462 -0.216026,0 -0.339705,0.18964 -0.01649,0.0247 -0.05607,0.13522 -0.03793,0.11048 -0.0874,0.16985 -0.04782,0.0593 -0.141819,0.0593 -0.08245,0 -0.13687,-0.0544 -0.05442,-0.0544 -0.05442,-0.14841 0,-0.11379 0.05112,-0.23746 0.05112,-0.12368 0.151713,-0.22427 0.10224,-0.1006 0.257251,-0.16162 0.15666,-0.0626 0.366089,-0.0626 0.252304,0 0.430401,0.0791 0.115433,0.0527 0.202833,0.14512 0.0874,0.0923 0.135222,0.21437 0.04947,0.12039 0.04947,0.25066 0,0.20448 -0.10224,0.37268 -0.100592,0.16656 -0.206131,0.2622 -0.10554,0.094 -0.354546,0.29683 -0.247357,0.20283 -0.339703,0.31497 -0.03958,0.0445 -0.0808,0.10719 z"
       id="text6"
       style="font-size:4.23333px;font-family:'Arial Rounded MT Bold';-inkscape-font-specification:'Arial Rounded MT Bold, Normal';fill:#ffffff;stroke:#000000;stroke-width:0;stroke-linecap:round"
       aria-label="OUT 2" />
  </g>
  <g
     inkscape:groupmode="layer"
     id="layer2"
     inkscape:label="components" />
</svg>
