<?xml version="1.0" encoding="UTF-8" standalone="no"?>
<svg
   width="40.64"
   height="128.5"
   version="1.1"
   id="svg3"
   sodipodi:docname="SpectroFXModule.svg"
   inkscape:version="1.4 (86a8ad7, 2024-10-11)"
   xmlns:inkscape="http://www.inkscape.org/namespaces/inkscape"
   xmlns:sodipodi="http://sodipodi.sourceforge.net/DTD/sodipodi-0.dtd"
   xmlns="http://www.w3.org/2000/svg"
   xmlns:svg="http://www.w3.org/2000/svg">
  <defs
     id="defs3" />
  <sodipodi:namedview
     id="namedview3"
     pagecolor="#ffffff"
     bordercolor="#000000"
     borderopacity="0.25"
     inkscape:showpageshadow="2"
     inkscape:pageopacity="0.0"
     inkscape:pagecheckerboard="0"
     inkscape:deskcolor="#d1d1d1"
     inkscape:zoom="5.7821012"
     inkscape:cx="20.234859"
     inkscape:cy="64.25"
     inkscape:window-width="1680"
     inkscape:window-height="987"
     inkscape:window-x="-8"
     inkscape:window-y="-8"
     inkscape:window-maximized="1"
     inkscape:current-layer="svg3" />
  <rect
     width="100%"
     height="100%"
     fill="#dddddd"
     id="rect1" />
  <path
     d="m 8.7433395,13.754883 q 0,0.254883 -0.1201171,0.503906 -0.1171875,0.249024 -0.3310547,0.421875 -0.234375,0.1875 -0.5478516,0.292969 -0.3105469,0.105469 -0.75,0.105469 -0.4716797,0 -0.8496094,-0.08789 -0.375,-0.08789 -0.7646484,-0.260742 v -0.726563 h 0.041016 q 0.3310547,0.275391 0.7646485,0.424805 0.4335937,0.149414 0.8144531,0.149414 0.5390625,0 0.8378906,-0.202148 0.3017578,-0.202149 0.3017578,-0.539063 0,-0.290039 -0.1435547,-0.427734 Q 7.8556442,13.271484 7.5656052,13.195313 7.3458786,13.136719 7.0880661,13.098633 6.8331833,13.060547 6.5460739,13.001953 5.9659958,12.878906 5.6847458,12.583008 5.4064255,12.28418 5.4064255,11.806641 q 0,-0.547852 0.4628906,-0.896485 0.4628906,-0.351562 1.1748047,-0.351562 0.4599609,0 0.84375,0.08789 0.3837891,0.08789 0.6796875,0.216797 v 0.685547 H 8.5265427 Q 8.2775192,11.337891 7.8702927,11.200195 7.4659958,11.05957 7.0411911,11.05957 q -0.4658203,0 -0.75,0.19336 -0.28125,0.193359 -0.28125,0.498047 0,0.272461 0.140625,0.427734 0.140625,0.155273 0.4951172,0.237305 0.1875,0.04101 0.5332031,0.09961 0.3457031,0.05859 0.5859375,0.120117 0.4863281,0.128906 0.7324219,0.389649 0.2460937,0.260742 0.2460937,0.729492 z m 3.7675785,-0.430664 q 0,0.398437 -0.114258,0.729492 -0.114258,0.328125 -0.322266,0.556641 -0.193359,0.216796 -0.457031,0.336914 -0.260742,0.117187 -0.553711,0.117187 -0.254883,0 -0.462891,-0.05566 -0.205078,-0.05566 -0.418945,-0.172851 v 1.371093 H 9.6310349 v -4.479492 h 0.5507811 v 0.342774 q 0.219727,-0.184571 0.492188,-0.307618 0.27539,-0.125976 0.585937,-0.125976 0.591797,0 0.919922,0.448242 0.331055,0.445312 0.331055,1.239258 z m -0.56836,0.01465 q 0,-0.591797 -0.202148,-0.884765 -0.202149,-0.292969 -0.621094,-0.292969 -0.237305,0 -0.477539,0.102539 -0.240234,0.102539 -0.459961,0.269531 v 1.854492 q 0.234375,0.105469 0.401367,0.143555 0.169922,0.03809 0.383789,0.03809 0.459961,0 0.717774,-0.310547 0.257812,-0.310547 0.257812,-0.919922 z m 4.166016,0.08203 h -2.411133 q 0,0.301758 0.09082,0.527344 0.09082,0.222656 0.249024,0.366211 0.152344,0.140625 0.360351,0.210938 0.210938,0.07031 0.462891,0.07031 0.333984,0 0.670898,-0.131836 0.339844,-0.134765 0.483399,-0.263672 h 0.0293 v 0.600586 q -0.278321,0.117188 -0.56836,0.196289 -0.290039,0.0791 -0.609375,0.0791 -0.814453,0 -1.271484,-0.439453 -0.457031,-0.442383 -0.457031,-1.253906 0,-0.802735 0.436523,-1.274415 0.439453,-0.471679 1.154297,-0.471679 0.662109,0 1.019531,0.386719 0.360352,0.386718 0.360352,1.098632 z m -0.536133,-0.421875 q -0.0029,-0.433593 -0.219726,-0.670898 -0.213868,-0.237305 -0.653321,-0.237305 -0.442383,0 -0.706054,0.260743 -0.260743,0.260742 -0.295899,0.64746 z m 3.791016,1.795899 Q 19.088066,14.926758 18.839043,15 q -0.246094,0.07324 -0.524414,0.07324 -0.354493,0 -0.650391,-0.102539 -0.295898,-0.105469 -0.506836,-0.316406 -0.213867,-0.210938 -0.331055,-0.533203 -0.117187,-0.322266 -0.117187,-0.75293 0,-0.802734 0.439453,-1.259766 0.442383,-0.457031 1.166016,-0.457031 0.28125,0 0.550781,0.0791 0.272461,0.0791 0.498047,0.193359 v 0.612305 h -0.0293 q -0.251953,-0.196289 -0.521485,-0.301758 -0.266601,-0.105469 -0.521484,-0.105469 -0.46875,0 -0.741211,0.316407 -0.269531,0.313476 -0.269531,0.922851 0,0.591797 0.263672,0.911133 0.266601,0.316406 0.74707,0.316406 0.166992,0 0.339844,-0.04395 0.172851,-0.04394 0.310547,-0.114258 0.120117,-0.06152 0.225586,-0.128906 0.105468,-0.07031 0.166992,-0.120117 h 0.0293 z m 2.405273,0.175781 q -0.155273,0.04102 -0.339844,0.06738 -0.18164,0.02637 -0.325195,0.02637 -0.500976,0 -0.761719,-0.269531 Q 20.08123,14.525391 20.08123,13.930664 V 12.19043 h -0.37207 v -0.462891 h 0.37207 v -0.94043 h 0.550781 v 0.94043 h 1.136719 v 0.462891 h -1.136719 v 1.491211 q 0,0.257812 0.01172,0.404297 0.01172,0.143554 0.08203,0.269531 0.06445,0.117187 0.175782,0.172851 0.114257,0.05273 0.345703,0.05273 0.134765,0 0.28125,-0.03809 0.146484,-0.04102 0.210937,-0.06738 h 0.0293 z m 2.707031,-2.642578 h -0.0293 q -0.123047,-0.0293 -0.240235,-0.04102 -0.114258,-0.01465 -0.272461,-0.01465 -0.254883,0 -0.492187,0.114258 -0.237305,0.111328 -0.457032,0.290039 V 15 h -0.550781 v -3.272461 h 0.550781 v 0.483399 q 0.328125,-0.263672 0.577149,-0.372071 0.251953,-0.111328 0.512695,-0.111328 0.143555,0 0.208008,0.0088 0.06445,0.0059 0.193359,0.02637 z m 3.307618,1.037109 q 0,0.799805 -0.410157,1.262696 -0.410156,0.46289 -1.098632,0.46289 -0.694336,0 -1.104493,-0.46289 -0.407226,-0.462891 -0.407226,-1.262696 0,-0.799804 0.407226,-1.262695 0.410157,-0.46582 1.104493,-0.46582 0.688476,0 1.098632,0.46582 0.410157,0.462891 0.410157,1.262695 z m -0.56836,0 q 0,-0.635742 -0.249023,-0.943359 -0.249024,-0.310547 -0.691406,-0.310547 -0.448243,0 -0.697266,0.310547 -0.246094,0.307617 -0.246094,0.943359 0,0.615235 0.249024,0.934571 0.249023,0.316406 0.694336,0.316406 0.439453,0 0.688476,-0.313477 0.251953,-0.316406 0.251953,-0.9375 z m 4.250977,-2.211914 h -2.206055 v 1.230469 h 1.895508 v 0.515625 H 29.259941 V 15 h -0.580078 v -4.362305 h 2.786133 z M 35.45623,10.637695 33.950371,12.793945 35.4533,15 H 34.782402 L 33.592949,13.204102 32.374199,15 h -0.632813 l 1.520508,-2.179687 -1.485351,-2.182618 h 0.667968 l 1.174805,1.772461 1.201172,-1.772461 z"
     id="text1"
     style="font-size:6px;text-anchor:middle"
     aria-label="SpectroFX" />
  <circle
     cx="20.32"
     cy="40"
     r="5"
     fill="white"
     stroke="black"
     id="circle1" />
  <path
     d="m 19.398125,55 h -1.148438 v -0.296875 h 0.38086 v -2.314453 h -0.38086 v -0.296875 h 1.148438 v 0.296875 h -0.38086 v 2.314453 h 0.38086 z m 2.876953,0 H 21.796562 L 20.417656,52.398437 V 55 h -0.361328 v -2.908203 h 0.599609 l 1.257813,2.375 v -2.375 h 0.361328 z"
     id="text2"
     style="font-size:4px;text-anchor:middle"
     aria-label="IN" />
  <circle
     cx="20.32"
     cy="90"
     r="5"
     fill="white"
     stroke="black"
     id="circle2" />
  <path
     d="m 18.608086,102.42578 q 0.177734,0.19531 0.271484,0.47852 0.0957,0.2832 0.0957,0.64258 0,0.35937 -0.09766,0.64453 -0.0957,0.2832 -0.269531,0.47265 -0.179688,0.19727 -0.425782,0.29688 -0.24414,0.0996 -0.558593,0.0996 -0.306641,0 -0.558594,-0.10157 -0.25,-0.10156 -0.425781,-0.29492 -0.175782,-0.19336 -0.271485,-0.47461 -0.09375,-0.28125 -0.09375,-0.64257 0,-0.35547 0.09375,-0.63672 0.09375,-0.28321 0.273438,-0.48438 0.171875,-0.1914 0.425781,-0.29297 0.255859,-0.10156 0.556641,-0.10156 0.3125,0 0.560547,0.10352 0.25,0.10156 0.423828,0.29101 z m -0.03516,1.1211 q 0,-0.56641 -0.253906,-0.87305 -0.253906,-0.3086 -0.693359,-0.3086 -0.44336,0 -0.697266,0.3086 -0.251953,0.30664 -0.251953,0.87305 0,0.57226 0.257813,0.87695 0.257812,0.30273 0.691406,0.30273 0.433594,0 0.689453,-0.30273 0.257812,-0.30469 0.257812,-0.87695 z m 3.205079,0.28515 q 0,0.31641 -0.07031,0.55274 -0.06836,0.23437 -0.226562,0.39062 -0.150391,0.14844 -0.351563,0.2168 -0.201172,0.0684 -0.46875,0.0684 -0.273437,0 -0.476562,-0.0723 -0.203125,-0.0723 -0.341797,-0.21289 -0.158203,-0.16016 -0.228516,-0.38672 -0.06836,-0.22656 -0.06836,-0.55664 v -1.74023 h 0.386718 v 1.75976 q 0,0.23633 0.03125,0.37305 0.0332,0.13672 0.109375,0.24805 0.08594,0.12695 0.232422,0.1914 0.148438,0.0645 0.355469,0.0645 0.208984,0 0.355469,-0.0625 0.146484,-0.0645 0.234375,-0.19336 0.07617,-0.11133 0.107422,-0.25391 0.0332,-0.14453 0.0332,-0.35742 v -1.76953 h 0.386719 z m 2.8125,-1.39648 H 23.551445 V 105 h -0.386719 v -2.56445 h -1.039062 v -0.34375 h 2.464844 z"
     id="text3"
     style="font-size:4px;text-anchor:middle"
     aria-label="OUT" />
</svg>
